<mxfile host="app.diagrams.net" agent="Mozilla/5.0 (Windows NT 10.0; Win64; x64) AppleWebKit/537.36 (KHTML, like Gecko) Chrome/131.0.0.0 Safari/537.36" version="24.9.0" pages="2">
  <diagram name="banco de dados" id="CLnz8Nq-f4bYH-YYY8Q1">
    <mxGraphModel dx="1434" dy="1915" grid="1" gridSize="10" guides="1" tooltips="1" connect="1" arrows="1" fold="1" page="1" pageScale="1" pageWidth="827" pageHeight="1169" math="0" shadow="0">
      <root>
        <mxCell id="0" />
        <mxCell id="1" parent="0" />
        <mxCell id="HFVJHlUM0762cSFoSJaH-14" value="FUNCIONARIO" style="swimlane;fontStyle=0;childLayout=stackLayout;horizontal=1;startSize=26;horizontalStack=0;resizeParent=1;resizeParentMax=0;resizeLast=0;collapsible=1;marginBottom=0;align=center;fontSize=14;fillColor=#007DFC;" parent="1" vertex="1">
          <mxGeometry width="190" height="1166" as="geometry">
            <mxRectangle width="140" height="30" as="alternateBounds" />
          </mxGeometry>
        </mxCell>
        <mxCell id="HFVJHlUM0762cSFoSJaH-15" value="nomeCompleto: varchar(50)" style="text;strokeColor=#b85450;fillColor=#f8cecc;spacingLeft=4;spacingRight=4;overflow=hidden;rotatable=0;points=[[0,0.5],[1,0.5]];portConstraint=eastwest;fontSize=12;whiteSpace=wrap;html=1;gradientColor=#ea6b66;" parent="HFVJHlUM0762cSFoSJaH-14" vertex="1">
          <mxGeometry y="26" width="190" height="30" as="geometry" />
        </mxCell>
        <mxCell id="HFVJHlUM0762cSFoSJaH-32" value="nomeSocial: varchar(30)" style="text;strokeColor=#b85450;fillColor=#f8cecc;spacingLeft=4;spacingRight=4;overflow=hidden;rotatable=0;points=[[0,0.5],[1,0.5]];portConstraint=eastwest;fontSize=12;whiteSpace=wrap;html=1;gradientColor=#ea6b66;" parent="HFVJHlUM0762cSFoSJaH-14" vertex="1">
          <mxGeometry y="56" width="190" height="30" as="geometry" />
        </mxCell>
        <mxCell id="HFVJHlUM0762cSFoSJaH-16" value="dataNascimento: date&lt;div&gt;&lt;br&gt;&lt;/div&gt;" style="text;strokeColor=none;fillColor=none;spacingLeft=4;spacingRight=4;overflow=hidden;rotatable=0;points=[[0,0.5],[1,0.5]];portConstraint=eastwest;fontSize=12;whiteSpace=wrap;html=1;" parent="HFVJHlUM0762cSFoSJaH-14" vertex="1">
          <mxGeometry y="86" width="190" height="30" as="geometry" />
        </mxCell>
        <mxCell id="HFVJHlUM0762cSFoSJaH-17" value="sexo: varchar(30)" style="text;strokeColor=none;fillColor=none;spacingLeft=4;spacingRight=4;overflow=hidden;rotatable=0;points=[[0,0.5],[1,0.5]];portConstraint=eastwest;fontSize=12;whiteSpace=wrap;html=1;" parent="HFVJHlUM0762cSFoSJaH-14" vertex="1">
          <mxGeometry y="116" width="190" height="30" as="geometry" />
        </mxCell>
        <mxCell id="HFVJHlUM0762cSFoSJaH-18" value="estadoCivil: varchar(20)" style="text;strokeColor=none;fillColor=none;spacingLeft=4;spacingRight=4;overflow=hidden;rotatable=0;points=[[0,0.5],[1,0.5]];portConstraint=eastwest;fontSize=12;whiteSpace=wrap;html=1;" parent="HFVJHlUM0762cSFoSJaH-14" vertex="1">
          <mxGeometry y="146" width="190" height="30" as="geometry" />
        </mxCell>
        <mxCell id="HFVJHlUM0762cSFoSJaH-20" value="endereco: varchar(50)" style="text;strokeColor=none;fillColor=none;spacingLeft=4;spacingRight=4;overflow=hidden;rotatable=0;points=[[0,0.5],[1,0.5]];portConstraint=eastwest;fontSize=12;whiteSpace=wrap;html=1;" parent="HFVJHlUM0762cSFoSJaH-14" vertex="1">
          <mxGeometry y="176" width="190" height="30" as="geometry" />
        </mxCell>
        <mxCell id="HFVJHlUM0762cSFoSJaH-21" value="numero: varchar(7)" style="text;strokeColor=none;fillColor=none;spacingLeft=4;spacingRight=4;overflow=hidden;rotatable=0;points=[[0,0.5],[1,0.5]];portConstraint=eastwest;fontSize=12;whiteSpace=wrap;html=1;" parent="HFVJHlUM0762cSFoSJaH-14" vertex="1">
          <mxGeometry y="206" width="190" height="30" as="geometry" />
        </mxCell>
        <mxCell id="HFVJHlUM0762cSFoSJaH-22" value="complemento: varchar(50)" style="text;strokeColor=none;fillColor=none;spacingLeft=4;spacingRight=4;overflow=hidden;rotatable=0;points=[[0,0.5],[1,0.5]];portConstraint=eastwest;fontSize=12;whiteSpace=wrap;html=1;" parent="HFVJHlUM0762cSFoSJaH-14" vertex="1">
          <mxGeometry y="236" width="190" height="30" as="geometry" />
        </mxCell>
        <mxCell id="HFVJHlUM0762cSFoSJaH-23" value="cep: char(8)" style="text;strokeColor=none;fillColor=none;spacingLeft=4;spacingRight=4;overflow=hidden;rotatable=0;points=[[0,0.5],[1,0.5]];portConstraint=eastwest;fontSize=12;whiteSpace=wrap;html=1;" parent="HFVJHlUM0762cSFoSJaH-14" vertex="1">
          <mxGeometry y="266" width="190" height="30" as="geometry" />
        </mxCell>
        <mxCell id="HFVJHlUM0762cSFoSJaH-24" value="bairro: varchar(30)" style="text;strokeColor=none;fillColor=none;spacingLeft=4;spacingRight=4;overflow=hidden;rotatable=0;points=[[0,0.5],[1,0.5]];portConstraint=eastwest;fontSize=12;whiteSpace=wrap;html=1;" parent="HFVJHlUM0762cSFoSJaH-14" vertex="1">
          <mxGeometry y="296" width="190" height="30" as="geometry" />
        </mxCell>
        <mxCell id="HFVJHlUM0762cSFoSJaH-25" value="cidade: varchar(30)" style="text;strokeColor=none;fillColor=none;spacingLeft=4;spacingRight=4;overflow=hidden;rotatable=0;points=[[0,0.5],[1,0.5]];portConstraint=eastwest;fontSize=12;whiteSpace=wrap;html=1;" parent="HFVJHlUM0762cSFoSJaH-14" vertex="1">
          <mxGeometry y="326" width="190" height="30" as="geometry" />
        </mxCell>
        <mxCell id="HFVJHlUM0762cSFoSJaH-26" value="uf: char(2)" style="text;strokeColor=none;fillColor=none;spacingLeft=4;spacingRight=4;overflow=hidden;rotatable=0;points=[[0,0.5],[1,0.5]];portConstraint=eastwest;fontSize=12;whiteSpace=wrap;html=1;" parent="HFVJHlUM0762cSFoSJaH-14" vertex="1">
          <mxGeometry y="356" width="190" height="30" as="geometry" />
        </mxCell>
        <mxCell id="HFVJHlUM0762cSFoSJaH-27" value="email: varchar(150)" style="text;strokeColor=none;fillColor=none;spacingLeft=4;spacingRight=4;overflow=hidden;rotatable=0;points=[[0,0.5],[1,0.5]];portConstraint=eastwest;fontSize=12;whiteSpace=wrap;html=1;" parent="HFVJHlUM0762cSFoSJaH-14" vertex="1">
          <mxGeometry y="386" width="190" height="30" as="geometry" />
        </mxCell>
        <mxCell id="HFVJHlUM0762cSFoSJaH-28" value="telefoneFixo varchar(11)" style="text;strokeColor=none;fillColor=none;spacingLeft=4;spacingRight=4;overflow=hidden;rotatable=0;points=[[0,0.5],[1,0.5]];portConstraint=eastwest;fontSize=12;whiteSpace=wrap;html=1;" parent="HFVJHlUM0762cSFoSJaH-14" vertex="1">
          <mxGeometry y="416" width="190" height="30" as="geometry" />
        </mxCell>
        <mxCell id="HFVJHlUM0762cSFoSJaH-29" value="telefoneCelular: varchar(13)" style="text;strokeColor=none;fillColor=none;spacingLeft=4;spacingRight=4;overflow=hidden;rotatable=0;points=[[0,0.5],[1,0.5]];portConstraint=eastwest;fontSize=12;whiteSpace=wrap;html=1;" parent="HFVJHlUM0762cSFoSJaH-14" vertex="1">
          <mxGeometry y="446" width="190" height="30" as="geometry" />
        </mxCell>
        <mxCell id="HFVJHlUM0762cSFoSJaH-30" value="rg: varchar(10)" style="text;strokeColor=none;fillColor=none;spacingLeft=4;spacingRight=4;overflow=hidden;rotatable=0;points=[[0,0.5],[1,0.5]];portConstraint=eastwest;fontSize=12;whiteSpace=wrap;html=1;" parent="HFVJHlUM0762cSFoSJaH-14" vertex="1">
          <mxGeometry y="476" width="190" height="30" as="geometry" />
        </mxCell>
        <mxCell id="HFVJHlUM0762cSFoSJaH-31" value="cpf: int(11)" style="text;strokeColor=none;fillColor=none;spacingLeft=4;spacingRight=4;overflow=hidden;rotatable=0;points=[[0,0.5],[1,0.5]];portConstraint=eastwest;fontSize=12;whiteSpace=wrap;html=1;" parent="HFVJHlUM0762cSFoSJaH-14" vertex="1">
          <mxGeometry y="506" width="190" height="30" as="geometry" />
        </mxCell>
        <mxCell id="HFVJHlUM0762cSFoSJaH-33" value="titulo: varchar(23)&amp;nbsp;" style="text;strokeColor=none;fillColor=none;spacingLeft=4;spacingRight=4;overflow=hidden;rotatable=0;points=[[0,0.5],[1,0.5]];portConstraint=eastwest;fontSize=12;whiteSpace=wrap;html=1;" parent="HFVJHlUM0762cSFoSJaH-14" vertex="1">
          <mxGeometry y="536" width="190" height="30" as="geometry" />
        </mxCell>
        <mxCell id="HFVJHlUM0762cSFoSJaH-34" value="ctps varchar(11)" style="text;strokeColor=none;fillColor=none;spacingLeft=4;spacingRight=4;overflow=hidden;rotatable=0;points=[[0,0.5],[1,0.5]];portConstraint=eastwest;fontSize=12;whiteSpace=wrap;html=1;" parent="HFVJHlUM0762cSFoSJaH-14" vertex="1">
          <mxGeometry y="566" width="190" height="30" as="geometry" />
        </mxCell>
        <mxCell id="HFVJHlUM0762cSFoSJaH-35" value="pis: varchar(11)" style="text;strokeColor=none;fillColor=none;spacingLeft=4;spacingRight=4;overflow=hidden;rotatable=0;points=[[0,0.5],[1,0.5]];portConstraint=eastwest;fontSize=12;whiteSpace=wrap;html=1;" parent="HFVJHlUM0762cSFoSJaH-14" vertex="1">
          <mxGeometry y="596" width="190" height="30" as="geometry" />
        </mxCell>
        <mxCell id="HFVJHlUM0762cSFoSJaH-36" value="reservista: varchar(12)" style="text;strokeColor=none;fillColor=none;spacingLeft=4;spacingRight=4;overflow=hidden;rotatable=0;points=[[0,0.5],[1,0.5]];portConstraint=eastwest;fontSize=12;whiteSpace=wrap;html=1;" parent="HFVJHlUM0762cSFoSJaH-14" vertex="1">
          <mxGeometry y="626" width="190" height="30" as="geometry" />
        </mxCell>
        <mxCell id="HFVJHlUM0762cSFoSJaH-37" value="cnh: varchar(9)" style="text;strokeColor=none;fillColor=none;spacingLeft=4;spacingRight=4;overflow=hidden;rotatable=0;points=[[0,0.5],[1,0.5]];portConstraint=eastwest;fontSize=12;whiteSpace=wrap;html=1;" parent="HFVJHlUM0762cSFoSJaH-14" vertex="1">
          <mxGeometry y="656" width="190" height="30" as="geometry" />
        </mxCell>
        <mxCell id="HFVJHlUM0762cSFoSJaH-38" value="passaporte: varchar(8)" style="text;strokeColor=none;fillColor=none;spacingLeft=4;spacingRight=4;overflow=hidden;rotatable=0;points=[[0,0.5],[1,0.5]];portConstraint=eastwest;fontSize=12;whiteSpace=wrap;html=1;" parent="HFVJHlUM0762cSFoSJaH-14" vertex="1">
          <mxGeometry y="686" width="190" height="30" as="geometry" />
        </mxCell>
        <mxCell id="HFVJHlUM0762cSFoSJaH-46" value="RNE: varchar(20)" style="text;strokeColor=none;fillColor=none;spacingLeft=4;spacingRight=4;overflow=hidden;rotatable=0;points=[[0,0.5],[1,0.5]];portConstraint=eastwest;fontSize=12;whiteSpace=wrap;html=1;" parent="HFVJHlUM0762cSFoSJaH-14" vertex="1">
          <mxGeometry y="716" width="190" height="30" as="geometry" />
        </mxCell>
        <mxCell id="HFVJHlUM0762cSFoSJaH-39" value="PCD: varchar(20)" style="text;strokeColor=none;fillColor=none;spacingLeft=4;spacingRight=4;overflow=hidden;rotatable=0;points=[[0,0.5],[1,0.5]];portConstraint=eastwest;fontSize=12;whiteSpace=wrap;html=1;" parent="HFVJHlUM0762cSFoSJaH-14" vertex="1">
          <mxGeometry y="746" width="190" height="30" as="geometry" />
        </mxCell>
        <mxCell id="HFVJHlUM0762cSFoSJaH-40" value="tipoSaFatorRH varchar(3)" style="text;strokeColor=none;fillColor=none;spacingLeft=4;spacingRight=4;overflow=hidden;rotatable=0;points=[[0,0.5],[1,0.5]];portConstraint=eastwest;fontSize=12;whiteSpace=wrap;html=1;" parent="HFVJHlUM0762cSFoSJaH-14" vertex="1">
          <mxGeometry y="776" width="190" height="30" as="geometry" />
        </mxCell>
        <mxCell id="HFVJHlUM0762cSFoSJaH-41" value="nomeMae: varchar(50)" style="text;strokeColor=none;fillColor=none;spacingLeft=4;spacingRight=4;overflow=hidden;rotatable=0;points=[[0,0.5],[1,0.5]];portConstraint=eastwest;fontSize=12;whiteSpace=wrap;html=1;" parent="HFVJHlUM0762cSFoSJaH-14" vertex="1">
          <mxGeometry y="806" width="190" height="30" as="geometry" />
        </mxCell>
        <mxCell id="HFVJHlUM0762cSFoSJaH-42" value="nomePai: varchar(50)" style="text;strokeColor=none;fillColor=none;spacingLeft=4;spacingRight=4;overflow=hidden;rotatable=0;points=[[0,0.5],[1,0.5]];portConstraint=eastwest;fontSize=12;whiteSpace=wrap;html=1;" parent="HFVJHlUM0762cSFoSJaH-14" vertex="1">
          <mxGeometry y="836" width="190" height="30" as="geometry" />
        </mxCell>
        <mxCell id="HFVJHlUM0762cSFoSJaH-44" value="escolaridade: varchar(30)" style="text;strokeColor=none;fillColor=none;spacingLeft=4;spacingRight=4;overflow=hidden;rotatable=0;points=[[0,0.5],[1,0.5]];portConstraint=eastwest;fontSize=12;whiteSpace=wrap;html=1;" parent="HFVJHlUM0762cSFoSJaH-14" vertex="1">
          <mxGeometry y="866" width="190" height="30" as="geometry" />
        </mxCell>
        <mxCell id="HFVJHlUM0762cSFoSJaH-45" value="dataAdm: date" style="text;strokeColor=none;fillColor=none;spacingLeft=4;spacingRight=4;overflow=hidden;rotatable=0;points=[[0,0.5],[1,0.5]];portConstraint=eastwest;fontSize=12;whiteSpace=wrap;html=1;" parent="HFVJHlUM0762cSFoSJaH-14" vertex="1">
          <mxGeometry y="896" width="190" height="30" as="geometry" />
        </mxCell>
        <mxCell id="HFVJHlUM0762cSFoSJaH-64" value="cargo: varchar(20)" style="text;strokeColor=none;fillColor=none;spacingLeft=4;spacingRight=4;overflow=hidden;rotatable=0;points=[[0,0.5],[1,0.5]];portConstraint=eastwest;fontSize=12;whiteSpace=wrap;html=1;" parent="HFVJHlUM0762cSFoSJaH-14" vertex="1">
          <mxGeometry y="926" width="190" height="30" as="geometry" />
        </mxCell>
        <mxCell id="HFVJHlUM0762cSFoSJaH-65" value="departamento: varchar(30)" style="text;strokeColor=none;fillColor=none;spacingLeft=4;spacingRight=4;overflow=hidden;rotatable=0;points=[[0,0.5],[1,0.5]];portConstraint=eastwest;fontSize=12;whiteSpace=wrap;html=1;" parent="HFVJHlUM0762cSFoSJaH-14" vertex="1">
          <mxGeometry y="956" width="190" height="30" as="geometry" />
        </mxCell>
        <mxCell id="HFVJHlUM0762cSFoSJaH-72" value="telefoneCorp: varchar(13)" style="text;strokeColor=none;fillColor=none;spacingLeft=4;spacingRight=4;overflow=hidden;rotatable=0;points=[[0,0.5],[1,0.5]];portConstraint=eastwest;fontSize=12;whiteSpace=wrap;html=1;" parent="HFVJHlUM0762cSFoSJaH-14" vertex="1">
          <mxGeometry y="986" width="190" height="30" as="geometry" />
        </mxCell>
        <mxCell id="HFVJHlUM0762cSFoSJaH-71" value="emailCorp:varchar(150)" style="text;strokeColor=none;fillColor=none;spacingLeft=4;spacingRight=4;overflow=hidden;rotatable=0;points=[[0,0.5],[1,0.5]];portConstraint=eastwest;fontSize=12;whiteSpace=wrap;html=1;" parent="HFVJHlUM0762cSFoSJaH-14" vertex="1">
          <mxGeometry y="1016" width="190" height="30" as="geometry" />
        </mxCell>
        <mxCell id="HFVJHlUM0762cSFoSJaH-66" value="salario: float(30)" style="text;strokeColor=none;fillColor=none;spacingLeft=4;spacingRight=4;overflow=hidden;rotatable=0;points=[[0,0.5],[1,0.5]];portConstraint=eastwest;fontSize=12;whiteSpace=wrap;html=1;" parent="HFVJHlUM0762cSFoSJaH-14" vertex="1">
          <mxGeometry y="1046" width="190" height="30" as="geometry" />
        </mxCell>
        <mxCell id="HFVJHlUM0762cSFoSJaH-67" value="cargaHoraria: varchar(20)" style="text;strokeColor=none;fillColor=none;spacingLeft=4;spacingRight=4;overflow=hidden;rotatable=0;points=[[0,0.5],[1,0.5]];portConstraint=eastwest;fontSize=12;whiteSpace=wrap;html=1;" parent="HFVJHlUM0762cSFoSJaH-14" vertex="1">
          <mxGeometry y="1076" width="190" height="30" as="geometry" />
        </mxCell>
        <mxCell id="HFVJHlUM0762cSFoSJaH-68" value="dataDem: date" style="text;strokeColor=none;fillColor=none;spacingLeft=4;spacingRight=4;overflow=hidden;rotatable=0;points=[[0,0.5],[1,0.5]];portConstraint=eastwest;fontSize=12;whiteSpace=wrap;html=1;" parent="HFVJHlUM0762cSFoSJaH-14" vertex="1">
          <mxGeometry y="1106" width="190" height="30" as="geometry" />
        </mxCell>
        <mxCell id="HFVJHlUM0762cSFoSJaH-69" value="observacoes: varchar(500)" style="text;strokeColor=none;fillColor=none;spacingLeft=4;spacingRight=4;overflow=hidden;rotatable=0;points=[[0,0.5],[1,0.5]];portConstraint=eastwest;fontSize=12;whiteSpace=wrap;html=1;" parent="HFVJHlUM0762cSFoSJaH-14" vertex="1">
          <mxGeometry y="1136" width="190" height="30" as="geometry" />
        </mxCell>
        <mxCell id="HFVJHlUM0762cSFoSJaH-47" value="FORNECEDOR" style="swimlane;fontStyle=0;childLayout=stackLayout;horizontal=1;startSize=26;horizontalStack=0;resizeParent=1;resizeParentMax=0;resizeLast=0;collapsible=1;marginBottom=0;align=center;fontSize=14;fillColor=#007DFC;" parent="1" vertex="1">
          <mxGeometry x="190" width="190" height="476" as="geometry" />
        </mxCell>
        <mxCell id="HFVJHlUM0762cSFoSJaH-48" value="razaoSocial: varchar(50)" style="text;strokeColor=none;fillColor=none;spacingLeft=4;spacingRight=4;overflow=hidden;rotatable=0;points=[[0,0.5],[1,0.5]];portConstraint=eastwest;fontSize=12;whiteSpace=wrap;html=1;" parent="HFVJHlUM0762cSFoSJaH-47" vertex="1">
          <mxGeometry y="26" width="190" height="30" as="geometry" />
        </mxCell>
        <mxCell id="HFVJHlUM0762cSFoSJaH-49" value="nomeFantasia: varchar(50)" style="text;strokeColor=none;fillColor=none;spacingLeft=4;spacingRight=4;overflow=hidden;rotatable=0;points=[[0,0.5],[1,0.5]];portConstraint=eastwest;fontSize=12;whiteSpace=wrap;html=1;" parent="HFVJHlUM0762cSFoSJaH-47" vertex="1">
          <mxGeometry y="56" width="190" height="30" as="geometry" />
        </mxCell>
        <mxCell id="HFVJHlUM0762cSFoSJaH-50" value="CNPJ: varchar(11)" style="text;strokeColor=none;fillColor=none;spacingLeft=4;spacingRight=4;overflow=hidden;rotatable=0;points=[[0,0.5],[1,0.5]];portConstraint=eastwest;fontSize=12;whiteSpace=wrap;html=1;" parent="HFVJHlUM0762cSFoSJaH-47" vertex="1">
          <mxGeometry y="86" width="190" height="30" as="geometry" />
        </mxCell>
        <mxCell id="G83Oi0IOlE-WhnUlmSur-9" value="inscEstadual: varchar(30)" style="text;strokeColor=none;fillColor=none;spacingLeft=4;spacingRight=4;overflow=hidden;rotatable=0;points=[[0,0.5],[1,0.5]];portConstraint=eastwest;fontSize=12;whiteSpace=wrap;html=1;" parent="HFVJHlUM0762cSFoSJaH-47" vertex="1">
          <mxGeometry y="116" width="190" height="30" as="geometry" />
        </mxCell>
        <mxCell id="G83Oi0IOlE-WhnUlmSur-10" value="inscMunicipal: varchar(30)" style="text;strokeColor=none;fillColor=none;spacingLeft=4;spacingRight=4;overflow=hidden;rotatable=0;points=[[0,0.5],[1,0.5]];portConstraint=eastwest;fontSize=12;whiteSpace=wrap;html=1;" parent="HFVJHlUM0762cSFoSJaH-47" vertex="1">
          <mxGeometry y="146" width="190" height="30" as="geometry" />
        </mxCell>
        <mxCell id="G83Oi0IOlE-WhnUlmSur-11" value="endereco: varchar(50)" style="text;strokeColor=none;fillColor=none;spacingLeft=4;spacingRight=4;overflow=hidden;rotatable=0;points=[[0,0.5],[1,0.5]];portConstraint=eastwest;fontSize=12;whiteSpace=wrap;html=1;" parent="HFVJHlUM0762cSFoSJaH-47" vertex="1">
          <mxGeometry y="176" width="190" height="30" as="geometry" />
        </mxCell>
        <mxCell id="G83Oi0IOlE-WhnUlmSur-12" value="numero: varchar(7)" style="text;strokeColor=none;fillColor=none;spacingLeft=4;spacingRight=4;overflow=hidden;rotatable=0;points=[[0,0.5],[1,0.5]];portConstraint=eastwest;fontSize=12;whiteSpace=wrap;html=1;" parent="HFVJHlUM0762cSFoSJaH-47" vertex="1">
          <mxGeometry y="206" width="190" height="30" as="geometry" />
        </mxCell>
        <mxCell id="G83Oi0IOlE-WhnUlmSur-13" value="complemento: varchar(50)" style="text;strokeColor=none;fillColor=none;spacingLeft=4;spacingRight=4;overflow=hidden;rotatable=0;points=[[0,0.5],[1,0.5]];portConstraint=eastwest;fontSize=12;whiteSpace=wrap;html=1;" parent="HFVJHlUM0762cSFoSJaH-47" vertex="1">
          <mxGeometry y="236" width="190" height="30" as="geometry" />
        </mxCell>
        <mxCell id="G83Oi0IOlE-WhnUlmSur-14" value="cep: varchar(8)" style="text;strokeColor=none;fillColor=none;spacingLeft=4;spacingRight=4;overflow=hidden;rotatable=0;points=[[0,0.5],[1,0.5]];portConstraint=eastwest;fontSize=12;whiteSpace=wrap;html=1;" parent="HFVJHlUM0762cSFoSJaH-47" vertex="1">
          <mxGeometry y="266" width="190" height="30" as="geometry" />
        </mxCell>
        <mxCell id="G83Oi0IOlE-WhnUlmSur-15" value="bairro: varchar(30)" style="text;strokeColor=none;fillColor=none;spacingLeft=4;spacingRight=4;overflow=hidden;rotatable=0;points=[[0,0.5],[1,0.5]];portConstraint=eastwest;fontSize=12;whiteSpace=wrap;html=1;" parent="HFVJHlUM0762cSFoSJaH-47" vertex="1">
          <mxGeometry y="296" width="190" height="30" as="geometry" />
        </mxCell>
        <mxCell id="G83Oi0IOlE-WhnUlmSur-16" value="cidade: varchar(30)" style="text;strokeColor=none;fillColor=none;spacingLeft=4;spacingRight=4;overflow=hidden;rotatable=0;points=[[0,0.5],[1,0.5]];portConstraint=eastwest;fontSize=12;whiteSpace=wrap;html=1;" parent="HFVJHlUM0762cSFoSJaH-47" vertex="1">
          <mxGeometry y="326" width="190" height="30" as="geometry" />
        </mxCell>
        <mxCell id="G83Oi0IOlE-WhnUlmSur-17" value="uf: char(2)" style="text;strokeColor=none;fillColor=none;spacingLeft=4;spacingRight=4;overflow=hidden;rotatable=0;points=[[0,0.5],[1,0.5]];portConstraint=eastwest;fontSize=12;whiteSpace=wrap;html=1;" parent="HFVJHlUM0762cSFoSJaH-47" vertex="1">
          <mxGeometry y="356" width="190" height="30" as="geometry" />
        </mxCell>
        <mxCell id="G83Oi0IOlE-WhnUlmSur-18" value="telefone: varchar(13)" style="text;strokeColor=none;fillColor=none;spacingLeft=4;spacingRight=4;overflow=hidden;rotatable=0;points=[[0,0.5],[1,0.5]];portConstraint=eastwest;fontSize=12;whiteSpace=wrap;html=1;" parent="HFVJHlUM0762cSFoSJaH-47" vertex="1">
          <mxGeometry y="386" width="190" height="30" as="geometry" />
        </mxCell>
        <mxCell id="G83Oi0IOlE-WhnUlmSur-19" value="email: varchar(150)" style="text;strokeColor=none;fillColor=none;spacingLeft=4;spacingRight=4;overflow=hidden;rotatable=0;points=[[0,0.5],[1,0.5]];portConstraint=eastwest;fontSize=12;whiteSpace=wrap;html=1;" parent="HFVJHlUM0762cSFoSJaH-47" vertex="1">
          <mxGeometry y="416" width="190" height="30" as="geometry" />
        </mxCell>
        <mxCell id="G83Oi0IOlE-WhnUlmSur-21" value="representante: varchar(50)" style="text;strokeColor=none;fillColor=none;spacingLeft=4;spacingRight=4;overflow=hidden;rotatable=0;points=[[0,0.5],[1,0.5]];portConstraint=eastwest;fontSize=12;whiteSpace=wrap;html=1;" parent="HFVJHlUM0762cSFoSJaH-47" vertex="1">
          <mxGeometry y="446" width="190" height="30" as="geometry" />
        </mxCell>
        <mxCell id="HFVJHlUM0762cSFoSJaH-51" value="PRODUTO" style="swimlane;fontStyle=0;childLayout=stackLayout;horizontal=1;startSize=26;horizontalStack=0;resizeParent=1;resizeParentMax=0;resizeLast=0;collapsible=1;marginBottom=0;align=center;fontSize=14;fillColor=#007DFC;" parent="1" vertex="1">
          <mxGeometry x="380" width="180" height="296" as="geometry" />
        </mxCell>
        <mxCell id="HFVJHlUM0762cSFoSJaH-53" value="itens:varchar(50)" style="text;strokeColor=none;fillColor=none;spacingLeft=4;spacingRight=4;overflow=hidden;rotatable=0;points=[[0,0.5],[1,0.5]];portConstraint=eastwest;fontSize=12;whiteSpace=wrap;html=1;" parent="HFVJHlUM0762cSFoSJaH-51" vertex="1">
          <mxGeometry y="26" width="180" height="30" as="geometry" />
        </mxCell>
        <mxCell id="HFVJHlUM0762cSFoSJaH-52" value="quantidade:varchar(50)" style="text;strokeColor=none;fillColor=none;spacingLeft=4;spacingRight=4;overflow=hidden;rotatable=0;points=[[0,0.5],[1,0.5]];portConstraint=eastwest;fontSize=12;whiteSpace=wrap;html=1;" parent="HFVJHlUM0762cSFoSJaH-51" vertex="1">
          <mxGeometry y="56" width="180" height="30" as="geometry" />
        </mxCell>
        <mxCell id="G83Oi0IOlE-WhnUlmSur-52" value="valor:varchar(50)" style="text;strokeColor=none;fillColor=none;spacingLeft=4;spacingRight=4;overflow=hidden;rotatable=0;points=[[0,0.5],[1,0.5]];portConstraint=eastwest;fontSize=12;whiteSpace=wrap;html=1;" parent="HFVJHlUM0762cSFoSJaH-51" vertex="1">
          <mxGeometry y="86" width="180" height="30" as="geometry" />
        </mxCell>
        <mxCell id="G83Oi0IOlE-WhnUlmSur-53" value="peso:varchar(50)" style="text;strokeColor=none;fillColor=none;spacingLeft=4;spacingRight=4;overflow=hidden;rotatable=0;points=[[0,0.5],[1,0.5]];portConstraint=eastwest;fontSize=12;whiteSpace=wrap;html=1;" parent="HFVJHlUM0762cSFoSJaH-51" vertex="1">
          <mxGeometry y="116" width="180" height="30" as="geometry" />
        </mxCell>
        <mxCell id="G83Oi0IOlE-WhnUlmSur-54" value="medidas:varchar(50)" style="text;strokeColor=none;fillColor=none;spacingLeft=4;spacingRight=4;overflow=hidden;rotatable=0;points=[[0,0.5],[1,0.5]];portConstraint=eastwest;fontSize=12;whiteSpace=wrap;html=1;" parent="HFVJHlUM0762cSFoSJaH-51" vertex="1">
          <mxGeometry y="146" width="180" height="30" as="geometry" />
        </mxCell>
        <mxCell id="G83Oi0IOlE-WhnUlmSur-59" value="dataFabricacao:date" style="text;strokeColor=none;fillColor=none;spacingLeft=4;spacingRight=4;overflow=hidden;rotatable=0;points=[[0,0.5],[1,0.5]];portConstraint=eastwest;fontSize=12;whiteSpace=wrap;html=1;" parent="HFVJHlUM0762cSFoSJaH-51" vertex="1">
          <mxGeometry y="176" width="180" height="30" as="geometry" />
        </mxCell>
        <mxCell id="G83Oi0IOlE-WhnUlmSur-58" value="dataValidade:date" style="text;strokeColor=none;fillColor=none;spacingLeft=4;spacingRight=4;overflow=hidden;rotatable=0;points=[[0,0.5],[1,0.5]];portConstraint=eastwest;fontSize=12;whiteSpace=wrap;html=1;" parent="HFVJHlUM0762cSFoSJaH-51" vertex="1">
          <mxGeometry y="206" width="180" height="30" as="geometry" />
        </mxCell>
        <mxCell id="G83Oi0IOlE-WhnUlmSur-68" value="marca:varchar(50)" style="text;strokeColor=none;fillColor=none;spacingLeft=4;spacingRight=4;overflow=hidden;rotatable=0;points=[[0,0.5],[1,0.5]];portConstraint=eastwest;fontSize=12;whiteSpace=wrap;html=1;" parent="HFVJHlUM0762cSFoSJaH-51" vertex="1">
          <mxGeometry y="236" width="180" height="30" as="geometry" />
        </mxCell>
        <mxCell id="G83Oi0IOlE-WhnUlmSur-70" value="cor:varchar(50)" style="text;strokeColor=none;fillColor=none;spacingLeft=4;spacingRight=4;overflow=hidden;rotatable=0;points=[[0,0.5],[1,0.5]];portConstraint=eastwest;fontSize=12;whiteSpace=wrap;html=1;" parent="HFVJHlUM0762cSFoSJaH-51" vertex="1">
          <mxGeometry y="266" width="180" height="30" as="geometry" />
        </mxCell>
        <mxCell id="HFVJHlUM0762cSFoSJaH-55" value="COMPRA" style="swimlane;fontStyle=0;childLayout=stackLayout;horizontal=1;startSize=26;horizontalStack=0;resizeParent=1;resizeParentMax=0;resizeLast=0;collapsible=1;marginBottom=0;align=center;fontSize=14;fillColor=#007DFC;" parent="1" vertex="1">
          <mxGeometry x="560" width="190" height="296" as="geometry">
            <mxRectangle x="720" y="10" width="100" height="30" as="alternateBounds" />
          </mxGeometry>
        </mxCell>
        <mxCell id="z2FD-CzegEXeASsBXZac-1" value="Item 1" style="text;strokeColor=none;fillColor=none;spacingLeft=4;spacingRight=4;overflow=hidden;rotatable=0;points=[[0,0.5],[1,0.5]];portConstraint=eastwest;fontSize=12;whiteSpace=wrap;html=1;" parent="HFVJHlUM0762cSFoSJaH-55" vertex="1">
          <mxGeometry y="26" width="190" height="30" as="geometry" />
        </mxCell>
        <mxCell id="QPImEq_SJukSlemjWr0A-26" value="itens:varchar(50)" style="text;strokeColor=none;fillColor=none;spacingLeft=4;spacingRight=4;overflow=hidden;rotatable=0;points=[[0,0.5],[1,0.5]];portConstraint=eastwest;fontSize=12;whiteSpace=wrap;html=1;" parent="HFVJHlUM0762cSFoSJaH-55" vertex="1">
          <mxGeometry y="56" width="190" height="30" as="geometry" />
        </mxCell>
        <mxCell id="QPImEq_SJukSlemjWr0A-29" value="cor:varchar(50)" style="text;strokeColor=none;fillColor=none;spacingLeft=4;spacingRight=4;overflow=hidden;rotatable=0;points=[[0,0.5],[1,0.5]];portConstraint=eastwest;fontSize=12;whiteSpace=wrap;html=1;" parent="HFVJHlUM0762cSFoSJaH-55" vertex="1">
          <mxGeometry y="86" width="190" height="30" as="geometry" />
        </mxCell>
        <mxCell id="QPImEq_SJukSlemjWr0A-28" value="valor:varchar(50)" style="text;strokeColor=none;fillColor=none;spacingLeft=4;spacingRight=4;overflow=hidden;rotatable=0;points=[[0,0.5],[1,0.5]];portConstraint=eastwest;fontSize=12;whiteSpace=wrap;html=1;" parent="HFVJHlUM0762cSFoSJaH-55" vertex="1">
          <mxGeometry y="116" width="190" height="30" as="geometry" />
        </mxCell>
        <mxCell id="QPImEq_SJukSlemjWr0A-27" value="quantidade:varchar(50)" style="text;strokeColor=none;fillColor=none;spacingLeft=4;spacingRight=4;overflow=hidden;rotatable=0;points=[[0,0.5],[1,0.5]];portConstraint=eastwest;fontSize=12;whiteSpace=wrap;html=1;" parent="HFVJHlUM0762cSFoSJaH-55" vertex="1">
          <mxGeometry y="146" width="190" height="30" as="geometry" />
        </mxCell>
        <mxCell id="z2FD-CzegEXeASsBXZac-77" value="fornecedor:varchar(50)" style="text;strokeColor=none;fillColor=none;spacingLeft=4;spacingRight=4;overflow=hidden;rotatable=0;points=[[0,0.5],[1,0.5]];portConstraint=eastwest;fontSize=12;whiteSpace=wrap;html=1;" parent="HFVJHlUM0762cSFoSJaH-55" vertex="1">
          <mxGeometry y="176" width="190" height="30" as="geometry" />
        </mxCell>
        <mxCell id="QPImEq_SJukSlemjWr0A-30" value="telefoneFornecedor: varchar(13)" style="text;strokeColor=none;fillColor=none;spacingLeft=4;spacingRight=4;overflow=hidden;rotatable=0;points=[[0,0.5],[1,0.5]];portConstraint=eastwest;fontSize=12;whiteSpace=wrap;html=1;" parent="HFVJHlUM0762cSFoSJaH-55" vertex="1">
          <mxGeometry y="206" width="190" height="30" as="geometry" />
        </mxCell>
        <mxCell id="QPImEq_SJukSlemjWr0A-31" value="emailFornecedor: varchar(150)" style="text;strokeColor=none;fillColor=none;spacingLeft=4;spacingRight=4;overflow=hidden;rotatable=0;points=[[0,0.5],[1,0.5]];portConstraint=eastwest;fontSize=12;whiteSpace=wrap;html=1;" parent="HFVJHlUM0762cSFoSJaH-55" vertex="1">
          <mxGeometry y="236" width="190" height="30" as="geometry" />
        </mxCell>
        <mxCell id="z2FD-CzegEXeASsBXZac-73" value="procedencia:varchar(50)" style="text;strokeColor=none;fillColor=none;spacingLeft=4;spacingRight=4;overflow=hidden;rotatable=0;points=[[0,0.5],[1,0.5]];portConstraint=eastwest;fontSize=12;whiteSpace=wrap;html=1;" parent="HFVJHlUM0762cSFoSJaH-55" vertex="1">
          <mxGeometry y="266" width="190" height="30" as="geometry" />
        </mxCell>
        <mxCell id="HFVJHlUM0762cSFoSJaH-60" value="ESTOQUE" style="swimlane;fontStyle=0;childLayout=stackLayout;horizontal=1;startSize=26;horizontalStack=0;resizeParent=1;resizeParentMax=0;resizeLast=0;collapsible=1;marginBottom=0;align=center;fontSize=14;fillColor=#007DFC;" parent="1" vertex="1">
          <mxGeometry x="750" width="180" height="326" as="geometry" />
        </mxCell>
        <mxCell id="QPImEq_SJukSlemjWr0A-15" value="quantidade:varchar(50)" style="text;strokeColor=none;fillColor=none;spacingLeft=4;spacingRight=4;overflow=hidden;rotatable=0;points=[[0,0.5],[1,0.5]];portConstraint=eastwest;fontSize=12;whiteSpace=wrap;html=1;" parent="HFVJHlUM0762cSFoSJaH-60" vertex="1">
          <mxGeometry y="26" width="180" height="30" as="geometry" />
        </mxCell>
        <mxCell id="QPImEq_SJukSlemjWr0A-16" value="itens:varchar(50)" style="text;strokeColor=none;fillColor=none;spacingLeft=4;spacingRight=4;overflow=hidden;rotatable=0;points=[[0,0.5],[1,0.5]];portConstraint=eastwest;fontSize=12;whiteSpace=wrap;html=1;" parent="HFVJHlUM0762cSFoSJaH-60" vertex="1">
          <mxGeometry y="56" width="180" height="30" as="geometry" />
        </mxCell>
        <mxCell id="QPImEq_SJukSlemjWr0A-17" value="quantidade:varchar(50)" style="text;strokeColor=none;fillColor=none;spacingLeft=4;spacingRight=4;overflow=hidden;rotatable=0;points=[[0,0.5],[1,0.5]];portConstraint=eastwest;fontSize=12;whiteSpace=wrap;html=1;" parent="HFVJHlUM0762cSFoSJaH-60" vertex="1">
          <mxGeometry y="86" width="180" height="30" as="geometry" />
        </mxCell>
        <mxCell id="QPImEq_SJukSlemjWr0A-24" value="cor:varchar(50)" style="text;strokeColor=none;fillColor=none;spacingLeft=4;spacingRight=4;overflow=hidden;rotatable=0;points=[[0,0.5],[1,0.5]];portConstraint=eastwest;fontSize=12;whiteSpace=wrap;html=1;" parent="HFVJHlUM0762cSFoSJaH-60" vertex="1">
          <mxGeometry y="116" width="180" height="30" as="geometry" />
        </mxCell>
        <mxCell id="QPImEq_SJukSlemjWr0A-23" value="marca:varchar(50)" style="text;strokeColor=none;fillColor=none;spacingLeft=4;spacingRight=4;overflow=hidden;rotatable=0;points=[[0,0.5],[1,0.5]];portConstraint=eastwest;fontSize=12;whiteSpace=wrap;html=1;" parent="HFVJHlUM0762cSFoSJaH-60" vertex="1">
          <mxGeometry y="146" width="180" height="30" as="geometry" />
        </mxCell>
        <mxCell id="QPImEq_SJukSlemjWr0A-22" value="dataEntrada:date" style="text;strokeColor=none;fillColor=none;spacingLeft=4;spacingRight=4;overflow=hidden;rotatable=0;points=[[0,0.5],[1,0.5]];portConstraint=eastwest;fontSize=12;whiteSpace=wrap;html=1;" parent="HFVJHlUM0762cSFoSJaH-60" vertex="1">
          <mxGeometry y="176" width="180" height="30" as="geometry" />
        </mxCell>
        <mxCell id="QPImEq_SJukSlemjWr0A-21" value="dataSaida:date" style="text;strokeColor=none;fillColor=none;spacingLeft=4;spacingRight=4;overflow=hidden;rotatable=0;points=[[0,0.5],[1,0.5]];portConstraint=eastwest;fontSize=12;whiteSpace=wrap;html=1;" parent="HFVJHlUM0762cSFoSJaH-60" vertex="1">
          <mxGeometry y="206" width="180" height="30" as="geometry" />
        </mxCell>
        <mxCell id="QPImEq_SJukSlemjWr0A-20" value="medidas:varchar(50)" style="text;strokeColor=none;fillColor=none;spacingLeft=4;spacingRight=4;overflow=hidden;rotatable=0;points=[[0,0.5],[1,0.5]];portConstraint=eastwest;fontSize=12;whiteSpace=wrap;html=1;" parent="HFVJHlUM0762cSFoSJaH-60" vertex="1">
          <mxGeometry y="236" width="180" height="30" as="geometry" />
        </mxCell>
        <mxCell id="QPImEq_SJukSlemjWr0A-19" value="peso:varchar(50)" style="text;strokeColor=none;fillColor=none;spacingLeft=4;spacingRight=4;overflow=hidden;rotatable=0;points=[[0,0.5],[1,0.5]];portConstraint=eastwest;fontSize=12;whiteSpace=wrap;html=1;" parent="HFVJHlUM0762cSFoSJaH-60" vertex="1">
          <mxGeometry y="266" width="180" height="30" as="geometry" />
        </mxCell>
        <mxCell id="QPImEq_SJukSlemjWr0A-18" value="valor:varchar(50)" style="text;strokeColor=none;fillColor=none;spacingLeft=4;spacingRight=4;overflow=hidden;rotatable=0;points=[[0,0.5],[1,0.5]];portConstraint=eastwest;fontSize=12;whiteSpace=wrap;html=1;" parent="HFVJHlUM0762cSFoSJaH-60" vertex="1">
          <mxGeometry y="296" width="180" height="30" as="geometry" />
        </mxCell>
        <mxCell id="G83Oi0IOlE-WhnUlmSur-1" value="&lt;font color=&quot;#ffffff&quot; style=&quot;font-size: 24px;&quot;&gt;&lt;b&gt;Banco de Dados&lt;/b&gt;&lt;/font&gt;" style="rounded=0;whiteSpace=wrap;html=1;fillColor=#00CCCC;" parent="1" vertex="1">
          <mxGeometry y="-50" width="1330" height="50" as="geometry" />
        </mxCell>
        <mxCell id="G83Oi0IOlE-WhnUlmSur-44" value="CLIENTE" style="swimlane;fontStyle=0;childLayout=stackLayout;horizontal=1;startSize=26;horizontalStack=0;resizeParent=1;resizeParentMax=0;resizeLast=0;collapsible=1;marginBottom=0;align=center;fontSize=14;fillColor=#007DFC;" parent="1" vertex="1">
          <mxGeometry x="930" width="190" height="416" as="geometry" />
        </mxCell>
        <mxCell id="G83Oi0IOlE-WhnUlmSur-45" value="nome:varchar(50)" style="text;strokeColor=none;fillColor=none;spacingLeft=4;spacingRight=4;overflow=hidden;rotatable=0;points=[[0,0.5],[1,0.5]];portConstraint=eastwest;fontSize=12;whiteSpace=wrap;html=1;" parent="G83Oi0IOlE-WhnUlmSur-44" vertex="1">
          <mxGeometry y="26" width="190" height="30" as="geometry" />
        </mxCell>
        <mxCell id="HFVJHlUM0762cSFoSJaH-62" value="dataNascimento:date" style="text;strokeColor=none;fillColor=none;spacingLeft=4;spacingRight=4;overflow=hidden;rotatable=0;points=[[0,0.5],[1,0.5]];portConstraint=eastwest;fontSize=12;whiteSpace=wrap;html=1;" parent="G83Oi0IOlE-WhnUlmSur-44" vertex="1">
          <mxGeometry y="56" width="190" height="30" as="geometry" />
        </mxCell>
        <mxCell id="QPImEq_SJukSlemjWr0A-12" value="nomeSocial: varchar(30)" style="text;strokeColor=none;fillColor=none;spacingLeft=4;spacingRight=4;overflow=hidden;rotatable=0;points=[[0,0.5],[1,0.5]];portConstraint=eastwest;fontSize=12;whiteSpace=wrap;html=1;" parent="G83Oi0IOlE-WhnUlmSur-44" vertex="1">
          <mxGeometry y="86" width="190" height="30" as="geometry" />
        </mxCell>
        <mxCell id="QPImEq_SJukSlemjWr0A-13" value="email: varchar(150)" style="text;strokeColor=none;fillColor=none;spacingLeft=4;spacingRight=4;overflow=hidden;rotatable=0;points=[[0,0.5],[1,0.5]];portConstraint=eastwest;fontSize=12;whiteSpace=wrap;html=1;" parent="G83Oi0IOlE-WhnUlmSur-44" vertex="1">
          <mxGeometry y="116" width="190" height="30" as="geometry" />
        </mxCell>
        <mxCell id="z2FD-CzegEXeASsBXZac-113" value="endereço:varchar(50)" style="text;strokeColor=none;fillColor=none;spacingLeft=4;spacingRight=4;overflow=hidden;rotatable=0;points=[[0,0.5],[1,0.5]];portConstraint=eastwest;fontSize=12;whiteSpace=wrap;html=1;" parent="G83Oi0IOlE-WhnUlmSur-44" vertex="1">
          <mxGeometry y="146" width="190" height="30" as="geometry" />
        </mxCell>
        <mxCell id="QPImEq_SJukSlemjWr0A-4" value="numero: varchar(7)" style="text;strokeColor=none;fillColor=none;spacingLeft=4;spacingRight=4;overflow=hidden;rotatable=0;points=[[0,0.5],[1,0.5]];portConstraint=eastwest;fontSize=12;whiteSpace=wrap;html=1;" parent="G83Oi0IOlE-WhnUlmSur-44" vertex="1">
          <mxGeometry y="176" width="190" height="30" as="geometry" />
        </mxCell>
        <mxCell id="QPImEq_SJukSlemjWr0A-5" value="complemento: varchar(50)" style="text;strokeColor=none;fillColor=none;spacingLeft=4;spacingRight=4;overflow=hidden;rotatable=0;points=[[0,0.5],[1,0.5]];portConstraint=eastwest;fontSize=12;whiteSpace=wrap;html=1;" parent="G83Oi0IOlE-WhnUlmSur-44" vertex="1">
          <mxGeometry y="206" width="190" height="30" as="geometry" />
        </mxCell>
        <mxCell id="QPImEq_SJukSlemjWr0A-11" value="email: varchar(150)" style="text;strokeColor=none;fillColor=none;spacingLeft=4;spacingRight=4;overflow=hidden;rotatable=0;points=[[0,0.5],[1,0.5]];portConstraint=eastwest;fontSize=12;whiteSpace=wrap;html=1;" parent="G83Oi0IOlE-WhnUlmSur-44" vertex="1">
          <mxGeometry y="236" width="190" height="30" as="geometry" />
        </mxCell>
        <mxCell id="QPImEq_SJukSlemjWr0A-10" value="telefone: varchar(13)" style="text;strokeColor=none;fillColor=none;spacingLeft=4;spacingRight=4;overflow=hidden;rotatable=0;points=[[0,0.5],[1,0.5]];portConstraint=eastwest;fontSize=12;whiteSpace=wrap;html=1;" parent="G83Oi0IOlE-WhnUlmSur-44" vertex="1">
          <mxGeometry y="266" width="190" height="30" as="geometry" />
        </mxCell>
        <mxCell id="QPImEq_SJukSlemjWr0A-9" value="uf: char(2)" style="text;strokeColor=none;fillColor=none;spacingLeft=4;spacingRight=4;overflow=hidden;rotatable=0;points=[[0,0.5],[1,0.5]];portConstraint=eastwest;fontSize=12;whiteSpace=wrap;html=1;" parent="G83Oi0IOlE-WhnUlmSur-44" vertex="1">
          <mxGeometry y="296" width="190" height="30" as="geometry" />
        </mxCell>
        <mxCell id="QPImEq_SJukSlemjWr0A-8" value="cidade: varchar(30)" style="text;strokeColor=none;fillColor=none;spacingLeft=4;spacingRight=4;overflow=hidden;rotatable=0;points=[[0,0.5],[1,0.5]];portConstraint=eastwest;fontSize=12;whiteSpace=wrap;html=1;" parent="G83Oi0IOlE-WhnUlmSur-44" vertex="1">
          <mxGeometry y="326" width="190" height="30" as="geometry" />
        </mxCell>
        <mxCell id="QPImEq_SJukSlemjWr0A-7" value="bairro: varchar(30)" style="text;strokeColor=none;fillColor=none;spacingLeft=4;spacingRight=4;overflow=hidden;rotatable=0;points=[[0,0.5],[1,0.5]];portConstraint=eastwest;fontSize=12;whiteSpace=wrap;html=1;" parent="G83Oi0IOlE-WhnUlmSur-44" vertex="1">
          <mxGeometry y="356" width="190" height="30" as="geometry" />
        </mxCell>
        <mxCell id="QPImEq_SJukSlemjWr0A-6" value="cep: varchar(8)" style="text;strokeColor=none;fillColor=none;spacingLeft=4;spacingRight=4;overflow=hidden;rotatable=0;points=[[0,0.5],[1,0.5]];portConstraint=eastwest;fontSize=12;whiteSpace=wrap;html=1;" parent="G83Oi0IOlE-WhnUlmSur-44" vertex="1">
          <mxGeometry y="386" width="190" height="30" as="geometry" />
        </mxCell>
        <mxCell id="G83Oi0IOlE-WhnUlmSur-48" value="VENDA" style="swimlane;fontStyle=0;childLayout=stackLayout;horizontal=1;startSize=26;horizontalStack=0;resizeParent=1;resizeParentMax=0;resizeLast=0;collapsible=1;marginBottom=0;align=center;fontSize=14;fillColor=#007DFC;" parent="1" vertex="1">
          <mxGeometry x="1121" width="209" height="116" as="geometry" />
        </mxCell>
        <mxCell id="z2FD-CzegEXeASsBXZac-148" value="quantidade:varchar(50)" style="text;strokeColor=none;fillColor=none;spacingLeft=4;spacingRight=4;overflow=hidden;rotatable=0;points=[[0,0.5],[1,0.5]];portConstraint=eastwest;fontSize=12;whiteSpace=wrap;html=1;" parent="G83Oi0IOlE-WhnUlmSur-48" vertex="1">
          <mxGeometry y="26" width="209" height="30" as="geometry" />
        </mxCell>
        <mxCell id="z2FD-CzegEXeASsBXZac-182" value="perfilCliente:varchar(50)" style="text;strokeColor=none;fillColor=none;spacingLeft=4;spacingRight=4;overflow=hidden;rotatable=0;points=[[0,0.5],[1,0.5]];portConstraint=eastwest;fontSize=12;whiteSpace=wrap;html=1;" parent="G83Oi0IOlE-WhnUlmSur-48" vertex="1">
          <mxGeometry y="56" width="209" height="30" as="geometry" />
        </mxCell>
        <mxCell id="z2FD-CzegEXeASsBXZac-181" value="valorMercadoria:varchar(50)" style="text;strokeColor=none;fillColor=none;spacingLeft=4;spacingRight=4;overflow=hidden;rotatable=0;points=[[0,0.5],[1,0.5]];portConstraint=eastwest;fontSize=12;whiteSpace=wrap;html=1;" parent="G83Oi0IOlE-WhnUlmSur-48" vertex="1">
          <mxGeometry y="86" width="209" height="30" as="geometry" />
        </mxCell>
      </root>
    </mxGraphModel>
  </diagram>
  <diagram id="Eh6x_W2Exh4kN6ZLm24o" name="Modelagens">
    <mxGraphModel dx="1434" dy="2013" grid="1" gridSize="10" guides="1" tooltips="1" connect="1" arrows="1" fold="1" page="1" pageScale="1" pageWidth="827" pageHeight="1169" math="0" shadow="0">
      <root>
        <mxCell id="0" />
        <mxCell id="1" parent="0" />
        <mxCell id="36o1cIbMNOUsUsFObOHg-21" value="" style="shape=tableRow;horizontal=0;startSize=0;swimlaneHead=0;swimlaneBody=0;fillColor=none;collapsible=0;dropTarget=0;points=[[0,0.5],[1,0.5]];portConstraint=eastwest;top=0;left=0;right=0;bottom=0;html=1;" parent="1" vertex="1">
          <mxGeometry x="10" y="80" width="180" height="30" as="geometry" />
        </mxCell>
        <mxCell id="36o1cIbMNOUsUsFObOHg-22" value="" style="shape=partialRectangle;connectable=0;fillColor=none;top=0;left=0;bottom=0;right=0;editable=1;overflow=hidden;html=1;whiteSpace=wrap;" parent="36o1cIbMNOUsUsFObOHg-21" vertex="1">
          <mxGeometry width="60" height="30" as="geometry">
            <mxRectangle width="60" height="30" as="alternateBounds" />
          </mxGeometry>
        </mxCell>
        <mxCell id="36o1cIbMNOUsUsFObOHg-24" value="FUNCIONARIO" style="shape=table;startSize=30;container=1;collapsible=1;childLayout=tableLayout;fixedRows=1;rowLines=0;fontStyle=1;align=center;resizeLast=1;html=1;fillColor=#00CCCC;strokeWidth=2;strokeColor=#000000;fontColor=#ffffff;rounded=0;shadow=0;gradientColor=none;swimlaneFillColor=none;" parent="1" vertex="1">
          <mxGeometry x="120" y="329" width="180" height="241" as="geometry" />
        </mxCell>
        <mxCell id="36o1cIbMNOUsUsFObOHg-25" value="" style="shape=tableRow;horizontal=0;startSize=0;swimlaneHead=0;swimlaneBody=0;fillColor=none;collapsible=0;dropTarget=0;points=[[0,0.5],[1,0.5]];portConstraint=eastwest;top=0;left=0;right=0;bottom=1;" parent="36o1cIbMNOUsUsFObOHg-24" vertex="1">
          <mxGeometry y="30" width="180" height="30" as="geometry" />
        </mxCell>
        <mxCell id="36o1cIbMNOUsUsFObOHg-26" value="PK" style="shape=partialRectangle;connectable=0;fillColor=#60a917;top=0;left=0;bottom=0;right=0;fontStyle=1;overflow=hidden;whiteSpace=wrap;html=1;strokeColor=#2D7600;fontColor=#ffffff;" parent="36o1cIbMNOUsUsFObOHg-25" vertex="1">
          <mxGeometry width="30" height="30" as="geometry">
            <mxRectangle width="30" height="30" as="alternateBounds" />
          </mxGeometry>
        </mxCell>
        <mxCell id="36o1cIbMNOUsUsFObOHg-27" value="idFuncionario" style="shape=partialRectangle;connectable=0;fillColor=#60a917;top=0;left=0;bottom=0;right=0;align=left;spacingLeft=6;fontStyle=5;overflow=hidden;whiteSpace=wrap;html=1;strokeColor=#2D7600;fontColor=#ffffff;" parent="36o1cIbMNOUsUsFObOHg-25" vertex="1">
          <mxGeometry x="30" width="150" height="30" as="geometry">
            <mxRectangle width="150" height="30" as="alternateBounds" />
          </mxGeometry>
        </mxCell>
        <mxCell id="36o1cIbMNOUsUsFObOHg-28" value="" style="shape=tableRow;horizontal=0;startSize=0;swimlaneHead=0;swimlaneBody=0;fillColor=none;collapsible=0;dropTarget=0;points=[[0,0.5],[1,0.5]];portConstraint=eastwest;top=0;left=0;right=0;bottom=0;" parent="36o1cIbMNOUsUsFObOHg-24" vertex="1">
          <mxGeometry y="60" width="180" height="30" as="geometry" />
        </mxCell>
        <mxCell id="36o1cIbMNOUsUsFObOHg-29" value="" style="shape=partialRectangle;connectable=0;fillColor=none;top=0;left=0;bottom=0;right=0;editable=1;overflow=hidden;whiteSpace=wrap;html=1;" parent="36o1cIbMNOUsUsFObOHg-28" vertex="1">
          <mxGeometry width="30" height="30" as="geometry">
            <mxRectangle width="30" height="30" as="alternateBounds" />
          </mxGeometry>
        </mxCell>
        <mxCell id="36o1cIbMNOUsUsFObOHg-30" value="&lt;table style=&quot;border-collapse:&lt;br/&gt; collapse;width:82pt&quot; width=&quot;109&quot; cellspacing=&quot;0&quot; cellpadding=&quot;0&quot; border=&quot;0&quot;&gt;&lt;tbody&gt;&lt;tr style=&quot;height:15.0pt&quot; height=&quot;20&quot;&gt;&lt;td style=&quot;height:15.0pt;width:82pt&quot; width=&quot;109&quot; class=&quot;xl65&quot; height=&quot;20&quot;&gt;nomeCompleto&lt;/td&gt;&lt;/tr&gt;&lt;/tbody&gt;&lt;/table&gt;" style="shape=partialRectangle;connectable=0;fillColor=none;top=0;left=0;bottom=0;right=0;align=left;spacingLeft=6;overflow=hidden;whiteSpace=wrap;html=1;" parent="36o1cIbMNOUsUsFObOHg-28" vertex="1">
          <mxGeometry x="30" width="150" height="30" as="geometry">
            <mxRectangle width="150" height="30" as="alternateBounds" />
          </mxGeometry>
        </mxCell>
        <mxCell id="36o1cIbMNOUsUsFObOHg-31" value="" style="shape=tableRow;horizontal=0;startSize=0;swimlaneHead=0;swimlaneBody=0;fillColor=none;collapsible=0;dropTarget=0;points=[[0,0.5],[1,0.5]];portConstraint=eastwest;top=0;left=0;right=0;bottom=0;" parent="36o1cIbMNOUsUsFObOHg-24" vertex="1">
          <mxGeometry y="90" width="180" height="30" as="geometry" />
        </mxCell>
        <mxCell id="36o1cIbMNOUsUsFObOHg-32" value="" style="shape=partialRectangle;connectable=0;fillColor=none;top=0;left=0;bottom=0;right=0;editable=1;overflow=hidden;whiteSpace=wrap;html=1;" parent="36o1cIbMNOUsUsFObOHg-31" vertex="1">
          <mxGeometry width="30" height="30" as="geometry">
            <mxRectangle width="30" height="30" as="alternateBounds" />
          </mxGeometry>
        </mxCell>
        <mxCell id="36o1cIbMNOUsUsFObOHg-33" value="&lt;table style=&quot;border-collapse:&lt;br/&gt; collapse;width:82pt&quot; width=&quot;109&quot; cellspacing=&quot;0&quot; cellpadding=&quot;0&quot; border=&quot;0&quot;&gt;&lt;tbody&gt;&lt;tr style=&quot;height:15.0pt&quot; height=&quot;20&quot;&gt;&lt;td style=&quot;height:15.0pt;width:82pt&quot; width=&quot;109&quot; class=&quot;xl65&quot; height=&quot;20&quot;&gt;dataNascimento&lt;/td&gt;&lt;/tr&gt;&lt;/tbody&gt;&lt;/table&gt;" style="shape=partialRectangle;connectable=0;fillColor=none;top=0;left=0;bottom=0;right=0;align=left;spacingLeft=6;overflow=hidden;whiteSpace=wrap;html=1;" parent="36o1cIbMNOUsUsFObOHg-31" vertex="1">
          <mxGeometry x="30" width="150" height="30" as="geometry">
            <mxRectangle width="150" height="30" as="alternateBounds" />
          </mxGeometry>
        </mxCell>
        <mxCell id="36o1cIbMNOUsUsFObOHg-34" value="" style="shape=tableRow;horizontal=0;startSize=0;swimlaneHead=0;swimlaneBody=0;fillColor=none;collapsible=0;dropTarget=0;points=[[0,0.5],[1,0.5]];portConstraint=eastwest;top=0;left=0;right=0;bottom=0;" parent="36o1cIbMNOUsUsFObOHg-24" vertex="1">
          <mxGeometry y="120" width="180" height="30" as="geometry" />
        </mxCell>
        <mxCell id="36o1cIbMNOUsUsFObOHg-35" value="" style="shape=partialRectangle;connectable=0;fillColor=none;top=0;left=0;bottom=0;right=0;editable=1;overflow=hidden;whiteSpace=wrap;html=1;" parent="36o1cIbMNOUsUsFObOHg-34" vertex="1">
          <mxGeometry width="30" height="30" as="geometry">
            <mxRectangle width="30" height="30" as="alternateBounds" />
          </mxGeometry>
        </mxCell>
        <mxCell id="36o1cIbMNOUsUsFObOHg-36" value="sexo" style="shape=partialRectangle;connectable=0;fillColor=none;top=0;left=0;bottom=0;right=0;align=left;spacingLeft=6;overflow=hidden;whiteSpace=wrap;html=1;" parent="36o1cIbMNOUsUsFObOHg-34" vertex="1">
          <mxGeometry x="30" width="150" height="30" as="geometry">
            <mxRectangle width="150" height="30" as="alternateBounds" />
          </mxGeometry>
        </mxCell>
        <mxCell id="36o1cIbMNOUsUsFObOHg-40" value="" style="shape=tableRow;horizontal=0;startSize=0;swimlaneHead=0;swimlaneBody=0;fillColor=none;collapsible=0;dropTarget=0;points=[[0,0.5],[1,0.5]];portConstraint=eastwest;top=0;left=0;right=0;bottom=0;" parent="36o1cIbMNOUsUsFObOHg-24" vertex="1">
          <mxGeometry y="150" width="180" height="30" as="geometry" />
        </mxCell>
        <mxCell id="36o1cIbMNOUsUsFObOHg-41" value="" style="shape=partialRectangle;connectable=0;fillColor=none;top=0;left=0;bottom=0;right=0;editable=1;overflow=hidden;whiteSpace=wrap;html=1;" parent="36o1cIbMNOUsUsFObOHg-40" vertex="1">
          <mxGeometry width="30" height="30" as="geometry">
            <mxRectangle width="30" height="30" as="alternateBounds" />
          </mxGeometry>
        </mxCell>
        <mxCell id="36o1cIbMNOUsUsFObOHg-42" value="estadoCivil" style="shape=partialRectangle;connectable=0;fillColor=none;top=0;left=0;bottom=0;right=0;align=left;spacingLeft=6;overflow=hidden;whiteSpace=wrap;html=1;" parent="36o1cIbMNOUsUsFObOHg-40" vertex="1">
          <mxGeometry x="30" width="150" height="30" as="geometry">
            <mxRectangle width="150" height="30" as="alternateBounds" />
          </mxGeometry>
        </mxCell>
        <mxCell id="36o1cIbMNOUsUsFObOHg-43" value="" style="shape=tableRow;horizontal=0;startSize=0;swimlaneHead=0;swimlaneBody=0;fillColor=none;collapsible=0;dropTarget=0;points=[[0,0.5],[1,0.5]];portConstraint=eastwest;top=0;left=0;right=0;bottom=0;" parent="36o1cIbMNOUsUsFObOHg-24" vertex="1">
          <mxGeometry y="180" width="180" height="30" as="geometry" />
        </mxCell>
        <mxCell id="36o1cIbMNOUsUsFObOHg-44" value="" style="shape=partialRectangle;connectable=0;fillColor=none;top=0;left=0;bottom=0;right=0;editable=1;overflow=hidden;whiteSpace=wrap;html=1;" parent="36o1cIbMNOUsUsFObOHg-43" vertex="1">
          <mxGeometry width="30" height="30" as="geometry">
            <mxRectangle width="30" height="30" as="alternateBounds" />
          </mxGeometry>
        </mxCell>
        <mxCell id="36o1cIbMNOUsUsFObOHg-45" value="escolaridade" style="shape=partialRectangle;connectable=0;fillColor=none;top=0;left=0;bottom=0;right=0;align=left;spacingLeft=6;overflow=hidden;whiteSpace=wrap;html=1;" parent="36o1cIbMNOUsUsFObOHg-43" vertex="1">
          <mxGeometry x="30" width="150" height="30" as="geometry">
            <mxRectangle width="150" height="30" as="alternateBounds" />
          </mxGeometry>
        </mxCell>
        <mxCell id="36o1cIbMNOUsUsFObOHg-46" value="" style="shape=tableRow;horizontal=0;startSize=0;swimlaneHead=0;swimlaneBody=0;fillColor=none;collapsible=0;dropTarget=0;points=[[0,0.5],[1,0.5]];portConstraint=eastwest;top=0;left=0;right=0;bottom=0;" parent="36o1cIbMNOUsUsFObOHg-24" vertex="1">
          <mxGeometry y="210" width="180" height="30" as="geometry" />
        </mxCell>
        <mxCell id="36o1cIbMNOUsUsFObOHg-47" value="" style="shape=partialRectangle;connectable=0;fillColor=none;top=0;left=0;bottom=0;right=0;editable=1;overflow=hidden;whiteSpace=wrap;html=1;" parent="36o1cIbMNOUsUsFObOHg-46" vertex="1">
          <mxGeometry width="30" height="30" as="geometry">
            <mxRectangle width="30" height="30" as="alternateBounds" />
          </mxGeometry>
        </mxCell>
        <mxCell id="36o1cIbMNOUsUsFObOHg-48" value="tipoSaFatorRH" style="shape=partialRectangle;connectable=0;fillColor=none;top=0;left=0;bottom=0;right=0;align=left;spacingLeft=6;overflow=hidden;whiteSpace=wrap;html=1;" parent="36o1cIbMNOUsUsFObOHg-46" vertex="1">
          <mxGeometry x="30" width="150" height="30" as="geometry">
            <mxRectangle width="150" height="30" as="alternateBounds" />
          </mxGeometry>
        </mxCell>
        <mxCell id="36o1cIbMNOUsUsFObOHg-49" value="ENDERECO" style="shape=table;startSize=35;container=1;collapsible=1;childLayout=tableLayout;fixedRows=1;rowLines=0;fontStyle=1;align=center;resizeLast=1;html=1;fillColor=#00CCCC;strokeColor=#000000;strokeWidth=2;fontColor=#ffffff;" parent="1" vertex="1">
          <mxGeometry x="440" y="10" width="180" height="305" as="geometry" />
        </mxCell>
        <mxCell id="36o1cIbMNOUsUsFObOHg-273" value="" style="shape=tableRow;horizontal=0;startSize=0;swimlaneHead=0;swimlaneBody=0;fillColor=none;collapsible=0;dropTarget=0;points=[[0,0.5],[1,0.5]];portConstraint=eastwest;top=0;left=0;right=0;bottom=0;" parent="36o1cIbMNOUsUsFObOHg-49" vertex="1">
          <mxGeometry y="35" width="180" height="30" as="geometry" />
        </mxCell>
        <mxCell id="36o1cIbMNOUsUsFObOHg-274" value="&lt;span style=&quot;font-weight: 700;&quot;&gt;PK&lt;/span&gt;" style="shape=partialRectangle;connectable=0;fillColor=#60a917;top=0;left=0;bottom=0;right=0;editable=1;overflow=hidden;whiteSpace=wrap;html=1;strokeColor=#2D7600;fontColor=#ffffff;" parent="36o1cIbMNOUsUsFObOHg-273" vertex="1">
          <mxGeometry width="30" height="30" as="geometry">
            <mxRectangle width="30" height="30" as="alternateBounds" />
          </mxGeometry>
        </mxCell>
        <mxCell id="36o1cIbMNOUsUsFObOHg-275" value="&lt;span style=&quot;font-weight: 700; text-decoration-line: underline;&quot;&gt;idEndereco&lt;/span&gt;" style="shape=partialRectangle;connectable=0;fillColor=#60a917;top=0;left=0;bottom=0;right=0;align=left;spacingLeft=6;overflow=hidden;whiteSpace=wrap;html=1;strokeColor=#2D7600;fontColor=#ffffff;" parent="36o1cIbMNOUsUsFObOHg-273" vertex="1">
          <mxGeometry x="30" width="150" height="30" as="geometry">
            <mxRectangle width="150" height="30" as="alternateBounds" />
          </mxGeometry>
        </mxCell>
        <mxCell id="36o1cIbMNOUsUsFObOHg-53" value="" style="shape=tableRow;horizontal=0;startSize=0;swimlaneHead=0;swimlaneBody=0;fillColor=none;collapsible=0;dropTarget=0;points=[[0,0.5],[1,0.5]];portConstraint=eastwest;top=0;left=0;right=0;bottom=0;" parent="36o1cIbMNOUsUsFObOHg-49" vertex="1">
          <mxGeometry y="65" width="180" height="30" as="geometry" />
        </mxCell>
        <mxCell id="36o1cIbMNOUsUsFObOHg-54" value="&lt;span style=&quot;font-weight: 700;&quot;&gt;FK&lt;/span&gt;" style="shape=partialRectangle;connectable=0;fillColor=#007DFC;top=0;left=0;bottom=0;right=0;editable=1;overflow=hidden;whiteSpace=wrap;html=1;strokeColor=#2D7600;fontColor=#ffffff;" parent="36o1cIbMNOUsUsFObOHg-53" vertex="1">
          <mxGeometry width="30" height="30" as="geometry">
            <mxRectangle width="30" height="30" as="alternateBounds" />
          </mxGeometry>
        </mxCell>
        <mxCell id="36o1cIbMNOUsUsFObOHg-55" value="&lt;span style=&quot;font-weight: 700; text-decoration-line: underline;&quot;&gt;idFuncionario&lt;/span&gt;" style="shape=partialRectangle;connectable=0;fillColor=#007DFC;top=0;left=0;bottom=0;right=0;align=left;spacingLeft=6;overflow=hidden;whiteSpace=wrap;html=1;strokeColor=#2D7600;fontColor=#ffffff;" parent="36o1cIbMNOUsUsFObOHg-53" vertex="1">
          <mxGeometry x="30" width="150" height="30" as="geometry">
            <mxRectangle width="150" height="30" as="alternateBounds" />
          </mxGeometry>
        </mxCell>
        <mxCell id="36o1cIbMNOUsUsFObOHg-304" value="" style="shape=tableRow;horizontal=0;startSize=0;swimlaneHead=0;swimlaneBody=0;fillColor=none;collapsible=0;dropTarget=0;points=[[0,0.5],[1,0.5]];portConstraint=eastwest;top=0;left=0;right=0;bottom=0;" parent="36o1cIbMNOUsUsFObOHg-49" vertex="1">
          <mxGeometry y="95" width="180" height="30" as="geometry" />
        </mxCell>
        <mxCell id="36o1cIbMNOUsUsFObOHg-305" value="&lt;span style=&quot;font-weight: 700;&quot;&gt;FK&lt;/span&gt;" style="shape=partialRectangle;connectable=0;fillColor=#007DFC;top=0;left=0;bottom=0;right=0;editable=1;overflow=hidden;whiteSpace=wrap;html=1;strokeColor=#2D7600;fontColor=#ffffff;" parent="36o1cIbMNOUsUsFObOHg-304" vertex="1">
          <mxGeometry width="30" height="30" as="geometry">
            <mxRectangle width="30" height="30" as="alternateBounds" />
          </mxGeometry>
        </mxCell>
        <mxCell id="36o1cIbMNOUsUsFObOHg-306" value="&lt;span style=&quot;font-weight: 700; text-decoration-line: underline;&quot;&gt;idFornecedor&lt;/span&gt;" style="shape=partialRectangle;connectable=0;fillColor=#007DFC;top=0;left=0;bottom=0;right=0;align=left;spacingLeft=6;overflow=hidden;whiteSpace=wrap;html=1;strokeColor=#2D7600;fontColor=#ffffff;" parent="36o1cIbMNOUsUsFObOHg-304" vertex="1">
          <mxGeometry x="30" width="150" height="30" as="geometry">
            <mxRectangle width="150" height="30" as="alternateBounds" />
          </mxGeometry>
        </mxCell>
        <mxCell id="36o1cIbMNOUsUsFObOHg-56" value="" style="shape=tableRow;horizontal=0;startSize=0;swimlaneHead=0;swimlaneBody=0;fillColor=none;collapsible=0;dropTarget=0;points=[[0,0.5],[1,0.5]];portConstraint=eastwest;top=0;left=0;right=0;bottom=0;" parent="36o1cIbMNOUsUsFObOHg-49" vertex="1">
          <mxGeometry y="125" width="180" height="30" as="geometry" />
        </mxCell>
        <mxCell id="36o1cIbMNOUsUsFObOHg-57" value="" style="shape=partialRectangle;connectable=0;fillColor=none;top=0;left=0;bottom=0;right=0;editable=1;overflow=hidden;whiteSpace=wrap;html=1;" parent="36o1cIbMNOUsUsFObOHg-56" vertex="1">
          <mxGeometry width="30" height="30" as="geometry">
            <mxRectangle width="30" height="30" as="alternateBounds" />
          </mxGeometry>
        </mxCell>
        <mxCell id="36o1cIbMNOUsUsFObOHg-58" value="endereco" style="shape=partialRectangle;connectable=0;fillColor=none;top=0;left=0;bottom=0;right=0;align=left;spacingLeft=6;overflow=hidden;whiteSpace=wrap;html=1;" parent="36o1cIbMNOUsUsFObOHg-56" vertex="1">
          <mxGeometry x="30" width="150" height="30" as="geometry">
            <mxRectangle width="150" height="30" as="alternateBounds" />
          </mxGeometry>
        </mxCell>
        <mxCell id="36o1cIbMNOUsUsFObOHg-59" value="" style="shape=tableRow;horizontal=0;startSize=0;swimlaneHead=0;swimlaneBody=0;fillColor=none;collapsible=0;dropTarget=0;points=[[0,0.5],[1,0.5]];portConstraint=eastwest;top=0;left=0;right=0;bottom=0;" parent="36o1cIbMNOUsUsFObOHg-49" vertex="1">
          <mxGeometry y="155" width="180" height="30" as="geometry" />
        </mxCell>
        <mxCell id="36o1cIbMNOUsUsFObOHg-60" value="" style="shape=partialRectangle;connectable=0;fillColor=none;top=0;left=0;bottom=0;right=0;editable=1;overflow=hidden;whiteSpace=wrap;html=1;" parent="36o1cIbMNOUsUsFObOHg-59" vertex="1">
          <mxGeometry width="30" height="30" as="geometry">
            <mxRectangle width="30" height="30" as="alternateBounds" />
          </mxGeometry>
        </mxCell>
        <mxCell id="36o1cIbMNOUsUsFObOHg-61" value="complemento" style="shape=partialRectangle;connectable=0;fillColor=none;top=0;left=0;bottom=0;right=0;align=left;spacingLeft=6;overflow=hidden;whiteSpace=wrap;html=1;" parent="36o1cIbMNOUsUsFObOHg-59" vertex="1">
          <mxGeometry x="30" width="150" height="30" as="geometry">
            <mxRectangle width="150" height="30" as="alternateBounds" />
          </mxGeometry>
        </mxCell>
        <mxCell id="36o1cIbMNOUsUsFObOHg-62" value="" style="shape=tableRow;horizontal=0;startSize=0;swimlaneHead=0;swimlaneBody=0;fillColor=none;collapsible=0;dropTarget=0;points=[[0,0.5],[1,0.5]];portConstraint=eastwest;top=0;left=0;right=0;bottom=0;" parent="36o1cIbMNOUsUsFObOHg-49" vertex="1">
          <mxGeometry y="185" width="180" height="30" as="geometry" />
        </mxCell>
        <mxCell id="36o1cIbMNOUsUsFObOHg-63" value="" style="shape=partialRectangle;connectable=0;fillColor=none;top=0;left=0;bottom=0;right=0;editable=1;overflow=hidden;whiteSpace=wrap;html=1;" parent="36o1cIbMNOUsUsFObOHg-62" vertex="1">
          <mxGeometry width="30" height="30" as="geometry">
            <mxRectangle width="30" height="30" as="alternateBounds" />
          </mxGeometry>
        </mxCell>
        <mxCell id="36o1cIbMNOUsUsFObOHg-64" value="cep" style="shape=partialRectangle;connectable=0;fillColor=none;top=0;left=0;bottom=0;right=0;align=left;spacingLeft=6;overflow=hidden;whiteSpace=wrap;html=1;" parent="36o1cIbMNOUsUsFObOHg-62" vertex="1">
          <mxGeometry x="30" width="150" height="30" as="geometry">
            <mxRectangle width="150" height="30" as="alternateBounds" />
          </mxGeometry>
        </mxCell>
        <mxCell id="36o1cIbMNOUsUsFObOHg-65" value="" style="shape=tableRow;horizontal=0;startSize=0;swimlaneHead=0;swimlaneBody=0;fillColor=none;collapsible=0;dropTarget=0;points=[[0,0.5],[1,0.5]];portConstraint=eastwest;top=0;left=0;right=0;bottom=0;" parent="36o1cIbMNOUsUsFObOHg-49" vertex="1">
          <mxGeometry y="215" width="180" height="30" as="geometry" />
        </mxCell>
        <mxCell id="36o1cIbMNOUsUsFObOHg-66" value="" style="shape=partialRectangle;connectable=0;fillColor=none;top=0;left=0;bottom=0;right=0;editable=1;overflow=hidden;whiteSpace=wrap;html=1;" parent="36o1cIbMNOUsUsFObOHg-65" vertex="1">
          <mxGeometry width="30" height="30" as="geometry">
            <mxRectangle width="30" height="30" as="alternateBounds" />
          </mxGeometry>
        </mxCell>
        <mxCell id="36o1cIbMNOUsUsFObOHg-67" value="bairro" style="shape=partialRectangle;connectable=0;fillColor=none;top=0;left=0;bottom=0;right=0;align=left;spacingLeft=6;overflow=hidden;whiteSpace=wrap;html=1;" parent="36o1cIbMNOUsUsFObOHg-65" vertex="1">
          <mxGeometry x="30" width="150" height="30" as="geometry">
            <mxRectangle width="150" height="30" as="alternateBounds" />
          </mxGeometry>
        </mxCell>
        <mxCell id="36o1cIbMNOUsUsFObOHg-68" value="" style="shape=tableRow;horizontal=0;startSize=0;swimlaneHead=0;swimlaneBody=0;fillColor=none;collapsible=0;dropTarget=0;points=[[0,0.5],[1,0.5]];portConstraint=eastwest;top=0;left=0;right=0;bottom=0;" parent="36o1cIbMNOUsUsFObOHg-49" vertex="1">
          <mxGeometry y="245" width="180" height="30" as="geometry" />
        </mxCell>
        <mxCell id="36o1cIbMNOUsUsFObOHg-69" value="" style="shape=partialRectangle;connectable=0;fillColor=none;top=0;left=0;bottom=0;right=0;editable=1;overflow=hidden;whiteSpace=wrap;html=1;" parent="36o1cIbMNOUsUsFObOHg-68" vertex="1">
          <mxGeometry width="30" height="30" as="geometry">
            <mxRectangle width="30" height="30" as="alternateBounds" />
          </mxGeometry>
        </mxCell>
        <mxCell id="36o1cIbMNOUsUsFObOHg-70" value="cidade" style="shape=partialRectangle;connectable=0;fillColor=none;top=0;left=0;bottom=0;right=0;align=left;spacingLeft=6;overflow=hidden;whiteSpace=wrap;html=1;" parent="36o1cIbMNOUsUsFObOHg-68" vertex="1">
          <mxGeometry x="30" width="150" height="30" as="geometry">
            <mxRectangle width="150" height="30" as="alternateBounds" />
          </mxGeometry>
        </mxCell>
        <mxCell id="36o1cIbMNOUsUsFObOHg-71" value="" style="shape=tableRow;horizontal=0;startSize=0;swimlaneHead=0;swimlaneBody=0;fillColor=none;collapsible=0;dropTarget=0;points=[[0,0.5],[1,0.5]];portConstraint=eastwest;top=0;left=0;right=0;bottom=0;" parent="36o1cIbMNOUsUsFObOHg-49" vertex="1">
          <mxGeometry y="275" width="180" height="30" as="geometry" />
        </mxCell>
        <mxCell id="36o1cIbMNOUsUsFObOHg-72" value="" style="shape=partialRectangle;connectable=0;fillColor=none;top=0;left=0;bottom=0;right=0;editable=1;overflow=hidden;whiteSpace=wrap;html=1;" parent="36o1cIbMNOUsUsFObOHg-71" vertex="1">
          <mxGeometry width="30" height="30" as="geometry">
            <mxRectangle width="30" height="30" as="alternateBounds" />
          </mxGeometry>
        </mxCell>
        <mxCell id="36o1cIbMNOUsUsFObOHg-73" value="uf" style="shape=partialRectangle;connectable=0;fillColor=none;top=0;left=0;bottom=0;right=0;align=left;spacingLeft=6;overflow=hidden;whiteSpace=wrap;html=1;" parent="36o1cIbMNOUsUsFObOHg-71" vertex="1">
          <mxGeometry x="30" width="150" height="30" as="geometry">
            <mxRectangle width="150" height="30" as="alternateBounds" />
          </mxGeometry>
        </mxCell>
        <mxCell id="36o1cIbMNOUsUsFObOHg-74" value="CONTATO_E" style="shape=table;startSize=30;container=1;collapsible=1;childLayout=tableLayout;fixedRows=1;rowLines=0;fontStyle=1;align=center;resizeLast=1;html=1;whiteSpace=wrap;strokeWidth=2;fillColor=#00CCCC;fontColor=#ffffff;strokeColor=#000000;" parent="1" vertex="1">
          <mxGeometry x="930" y="300" width="180" height="180" as="geometry" />
        </mxCell>
        <mxCell id="36o1cIbMNOUsUsFObOHg-267" value="" style="shape=tableRow;horizontal=0;startSize=0;swimlaneHead=0;swimlaneBody=0;fillColor=none;collapsible=0;dropTarget=0;points=[[0,0.5],[1,0.5]];portConstraint=eastwest;top=0;left=0;right=0;bottom=1;html=1;" parent="36o1cIbMNOUsUsFObOHg-74" vertex="1">
          <mxGeometry y="30" width="180" height="30" as="geometry" />
        </mxCell>
        <mxCell id="36o1cIbMNOUsUsFObOHg-268" value="PK" style="shape=partialRectangle;connectable=0;fillColor=#60a917;top=0;left=0;bottom=0;right=0;fontStyle=1;overflow=hidden;html=1;whiteSpace=wrap;fontColor=#ffffff;strokeColor=#2D7600;" parent="36o1cIbMNOUsUsFObOHg-267" vertex="1">
          <mxGeometry width="60" height="30" as="geometry">
            <mxRectangle width="60" height="30" as="alternateBounds" />
          </mxGeometry>
        </mxCell>
        <mxCell id="36o1cIbMNOUsUsFObOHg-269" value="idContatoE" style="shape=partialRectangle;connectable=0;fillColor=#60a917;top=0;left=0;bottom=0;right=0;align=left;spacingLeft=6;fontStyle=5;overflow=hidden;html=1;whiteSpace=wrap;fontColor=#ffffff;strokeColor=#2D7600;" parent="36o1cIbMNOUsUsFObOHg-267" vertex="1">
          <mxGeometry x="60" width="120" height="30" as="geometry">
            <mxRectangle width="120" height="30" as="alternateBounds" />
          </mxGeometry>
        </mxCell>
        <mxCell id="36o1cIbMNOUsUsFObOHg-78" value="" style="shape=tableRow;horizontal=0;startSize=0;swimlaneHead=0;swimlaneBody=0;fillColor=none;collapsible=0;dropTarget=0;points=[[0,0.5],[1,0.5]];portConstraint=eastwest;top=0;left=0;right=0;bottom=1;html=1;" parent="36o1cIbMNOUsUsFObOHg-74" vertex="1">
          <mxGeometry y="60" width="180" height="30" as="geometry" />
        </mxCell>
        <mxCell id="36o1cIbMNOUsUsFObOHg-79" value="FK" style="shape=partialRectangle;connectable=0;fillColor=#007DFC;top=0;left=0;bottom=0;right=0;fontStyle=1;overflow=hidden;html=1;whiteSpace=wrap;fontColor=#ffffff;strokeColor=#2D7600;" parent="36o1cIbMNOUsUsFObOHg-78" vertex="1">
          <mxGeometry width="60" height="30" as="geometry">
            <mxRectangle width="60" height="30" as="alternateBounds" />
          </mxGeometry>
        </mxCell>
        <mxCell id="36o1cIbMNOUsUsFObOHg-80" value="idFuncionario" style="shape=partialRectangle;connectable=0;fillColor=#007DFC;top=0;left=0;bottom=0;right=0;align=left;spacingLeft=6;fontStyle=5;overflow=hidden;html=1;whiteSpace=wrap;fontColor=#ffffff;strokeColor=#2D7600;" parent="36o1cIbMNOUsUsFObOHg-78" vertex="1">
          <mxGeometry x="60" width="120" height="30" as="geometry">
            <mxRectangle width="120" height="30" as="alternateBounds" />
          </mxGeometry>
        </mxCell>
        <mxCell id="36o1cIbMNOUsUsFObOHg-301" value="" style="shape=tableRow;horizontal=0;startSize=0;swimlaneHead=0;swimlaneBody=0;fillColor=none;collapsible=0;dropTarget=0;points=[[0,0.5],[1,0.5]];portConstraint=eastwest;top=0;left=0;right=0;bottom=1;html=1;" parent="36o1cIbMNOUsUsFObOHg-74" vertex="1">
          <mxGeometry y="90" width="180" height="30" as="geometry" />
        </mxCell>
        <mxCell id="36o1cIbMNOUsUsFObOHg-302" value="FK" style="shape=partialRectangle;connectable=0;fillColor=#007DFC;top=0;left=0;bottom=0;right=0;fontStyle=1;overflow=hidden;html=1;whiteSpace=wrap;fontColor=#ffffff;strokeColor=#2D7600;" parent="36o1cIbMNOUsUsFObOHg-301" vertex="1">
          <mxGeometry width="60" height="30" as="geometry">
            <mxRectangle width="60" height="30" as="alternateBounds" />
          </mxGeometry>
        </mxCell>
        <mxCell id="36o1cIbMNOUsUsFObOHg-303" value="idFornecedor" style="shape=partialRectangle;connectable=0;fillColor=#007DFC;top=0;left=0;bottom=0;right=0;align=left;spacingLeft=6;fontStyle=5;overflow=hidden;html=1;whiteSpace=wrap;fontColor=#ffffff;strokeColor=#2D7600;" parent="36o1cIbMNOUsUsFObOHg-301" vertex="1">
          <mxGeometry x="60" width="120" height="30" as="geometry">
            <mxRectangle width="120" height="30" as="alternateBounds" />
          </mxGeometry>
        </mxCell>
        <mxCell id="36o1cIbMNOUsUsFObOHg-81" value="" style="shape=tableRow;horizontal=0;startSize=0;swimlaneHead=0;swimlaneBody=0;fillColor=none;collapsible=0;dropTarget=0;points=[[0,0.5],[1,0.5]];portConstraint=eastwest;top=0;left=0;right=0;bottom=0;html=1;" parent="36o1cIbMNOUsUsFObOHg-74" vertex="1">
          <mxGeometry y="120" width="180" height="30" as="geometry" />
        </mxCell>
        <mxCell id="36o1cIbMNOUsUsFObOHg-82" value="" style="shape=partialRectangle;connectable=0;fillColor=none;top=0;left=0;bottom=0;right=0;editable=1;overflow=hidden;html=1;whiteSpace=wrap;" parent="36o1cIbMNOUsUsFObOHg-81" vertex="1">
          <mxGeometry width="60" height="30" as="geometry">
            <mxRectangle width="60" height="30" as="alternateBounds" />
          </mxGeometry>
        </mxCell>
        <mxCell id="36o1cIbMNOUsUsFObOHg-83" value="tipo" style="shape=partialRectangle;connectable=0;fillColor=none;top=0;left=0;bottom=0;right=0;align=left;spacingLeft=6;overflow=hidden;html=1;whiteSpace=wrap;" parent="36o1cIbMNOUsUsFObOHg-81" vertex="1">
          <mxGeometry x="60" width="120" height="30" as="geometry">
            <mxRectangle width="120" height="30" as="alternateBounds" />
          </mxGeometry>
        </mxCell>
        <mxCell id="36o1cIbMNOUsUsFObOHg-84" value="" style="shape=tableRow;horizontal=0;startSize=0;swimlaneHead=0;swimlaneBody=0;fillColor=none;collapsible=0;dropTarget=0;points=[[0,0.5],[1,0.5]];portConstraint=eastwest;top=0;left=0;right=0;bottom=0;html=1;" parent="36o1cIbMNOUsUsFObOHg-74" vertex="1">
          <mxGeometry y="150" width="180" height="30" as="geometry" />
        </mxCell>
        <mxCell id="36o1cIbMNOUsUsFObOHg-85" value="" style="shape=partialRectangle;connectable=0;fillColor=none;top=0;left=0;bottom=0;right=0;editable=1;overflow=hidden;html=1;whiteSpace=wrap;" parent="36o1cIbMNOUsUsFObOHg-84" vertex="1">
          <mxGeometry width="60" height="30" as="geometry">
            <mxRectangle width="60" height="30" as="alternateBounds" />
          </mxGeometry>
        </mxCell>
        <mxCell id="36o1cIbMNOUsUsFObOHg-86" value="email" style="shape=partialRectangle;connectable=0;fillColor=none;top=0;left=0;bottom=0;right=0;align=left;spacingLeft=6;overflow=hidden;html=1;whiteSpace=wrap;" parent="36o1cIbMNOUsUsFObOHg-84" vertex="1">
          <mxGeometry x="60" width="120" height="30" as="geometry">
            <mxRectangle width="120" height="30" as="alternateBounds" />
          </mxGeometry>
        </mxCell>
        <mxCell id="36o1cIbMNOUsUsFObOHg-87" value="CONTATO_T" style="shape=table;startSize=30;container=1;collapsible=1;childLayout=tableLayout;fixedRows=1;rowLines=0;fontStyle=1;align=center;resizeLast=1;html=1;whiteSpace=wrap;strokeWidth=2;fillColor=#00CCCC;fontColor=#ffffff;strokeColor=#000000;" parent="1" vertex="1">
          <mxGeometry x="930" y="100" width="180" height="150" as="geometry" />
        </mxCell>
        <mxCell id="36o1cIbMNOUsUsFObOHg-270" value="" style="shape=tableRow;horizontal=0;startSize=0;swimlaneHead=0;swimlaneBody=0;fillColor=none;collapsible=0;dropTarget=0;points=[[0,0.5],[1,0.5]];portConstraint=eastwest;top=0;left=0;right=0;bottom=1;html=1;" parent="36o1cIbMNOUsUsFObOHg-87" vertex="1">
          <mxGeometry y="30" width="180" height="30" as="geometry" />
        </mxCell>
        <mxCell id="36o1cIbMNOUsUsFObOHg-271" value="PK" style="shape=partialRectangle;connectable=0;fillColor=#60a917;top=0;left=0;bottom=0;right=0;fontStyle=1;overflow=hidden;html=1;whiteSpace=wrap;fontColor=#ffffff;strokeColor=#2D7600;" parent="36o1cIbMNOUsUsFObOHg-270" vertex="1">
          <mxGeometry width="60" height="30" as="geometry">
            <mxRectangle width="60" height="30" as="alternateBounds" />
          </mxGeometry>
        </mxCell>
        <mxCell id="36o1cIbMNOUsUsFObOHg-272" value="idContatoT" style="shape=partialRectangle;connectable=0;fillColor=#60a917;top=0;left=0;bottom=0;right=0;align=left;spacingLeft=6;fontStyle=5;overflow=hidden;html=1;whiteSpace=wrap;fontColor=#ffffff;strokeColor=#2D7600;" parent="36o1cIbMNOUsUsFObOHg-270" vertex="1">
          <mxGeometry x="60" width="120" height="30" as="geometry">
            <mxRectangle width="120" height="30" as="alternateBounds" />
          </mxGeometry>
        </mxCell>
        <mxCell id="36o1cIbMNOUsUsFObOHg-91" value="" style="shape=tableRow;horizontal=0;startSize=0;swimlaneHead=0;swimlaneBody=0;fillColor=none;collapsible=0;dropTarget=0;points=[[0,0.5],[1,0.5]];portConstraint=eastwest;top=0;left=0;right=0;bottom=1;html=1;" parent="36o1cIbMNOUsUsFObOHg-87" vertex="1">
          <mxGeometry y="60" width="180" height="30" as="geometry" />
        </mxCell>
        <mxCell id="36o1cIbMNOUsUsFObOHg-92" value="FK" style="shape=partialRectangle;connectable=0;fillColor=#007DFC;top=0;left=0;bottom=0;right=0;fontStyle=1;overflow=hidden;html=1;whiteSpace=wrap;fontColor=#ffffff;strokeColor=#2D7600;" parent="36o1cIbMNOUsUsFObOHg-91" vertex="1">
          <mxGeometry width="60" height="30" as="geometry">
            <mxRectangle width="60" height="30" as="alternateBounds" />
          </mxGeometry>
        </mxCell>
        <mxCell id="36o1cIbMNOUsUsFObOHg-93" value="idFuncionario" style="shape=partialRectangle;connectable=0;fillColor=#007DFC;top=0;left=0;bottom=0;right=0;align=left;spacingLeft=6;fontStyle=5;overflow=hidden;html=1;whiteSpace=wrap;fontColor=#ffffff;strokeColor=#2D7600;" parent="36o1cIbMNOUsUsFObOHg-91" vertex="1">
          <mxGeometry x="60" width="120" height="30" as="geometry">
            <mxRectangle width="120" height="30" as="alternateBounds" />
          </mxGeometry>
        </mxCell>
        <mxCell id="36o1cIbMNOUsUsFObOHg-94" value="" style="shape=tableRow;horizontal=0;startSize=0;swimlaneHead=0;swimlaneBody=0;fillColor=none;collapsible=0;dropTarget=0;points=[[0,0.5],[1,0.5]];portConstraint=eastwest;top=0;left=0;right=0;bottom=0;html=1;" parent="36o1cIbMNOUsUsFObOHg-87" vertex="1">
          <mxGeometry y="90" width="180" height="30" as="geometry" />
        </mxCell>
        <mxCell id="36o1cIbMNOUsUsFObOHg-95" value="" style="shape=partialRectangle;connectable=0;fillColor=none;top=0;left=0;bottom=0;right=0;editable=1;overflow=hidden;html=1;whiteSpace=wrap;" parent="36o1cIbMNOUsUsFObOHg-94" vertex="1">
          <mxGeometry width="60" height="30" as="geometry">
            <mxRectangle width="60" height="30" as="alternateBounds" />
          </mxGeometry>
        </mxCell>
        <mxCell id="36o1cIbMNOUsUsFObOHg-96" value="tipo" style="shape=partialRectangle;connectable=0;fillColor=none;top=0;left=0;bottom=0;right=0;align=left;spacingLeft=6;overflow=hidden;html=1;whiteSpace=wrap;" parent="36o1cIbMNOUsUsFObOHg-94" vertex="1">
          <mxGeometry x="60" width="120" height="30" as="geometry">
            <mxRectangle width="120" height="30" as="alternateBounds" />
          </mxGeometry>
        </mxCell>
        <mxCell id="36o1cIbMNOUsUsFObOHg-97" value="" style="shape=tableRow;horizontal=0;startSize=0;swimlaneHead=0;swimlaneBody=0;fillColor=none;collapsible=0;dropTarget=0;points=[[0,0.5],[1,0.5]];portConstraint=eastwest;top=0;left=0;right=0;bottom=0;html=1;" parent="36o1cIbMNOUsUsFObOHg-87" vertex="1">
          <mxGeometry y="120" width="180" height="30" as="geometry" />
        </mxCell>
        <mxCell id="36o1cIbMNOUsUsFObOHg-98" value="" style="shape=partialRectangle;connectable=0;fillColor=none;top=0;left=0;bottom=0;right=0;editable=1;overflow=hidden;html=1;whiteSpace=wrap;" parent="36o1cIbMNOUsUsFObOHg-97" vertex="1">
          <mxGeometry width="60" height="30" as="geometry">
            <mxRectangle width="60" height="30" as="alternateBounds" />
          </mxGeometry>
        </mxCell>
        <mxCell id="36o1cIbMNOUsUsFObOHg-99" value="numero" style="shape=partialRectangle;connectable=0;fillColor=none;top=0;left=0;bottom=0;right=0;align=left;spacingLeft=6;overflow=hidden;html=1;whiteSpace=wrap;" parent="36o1cIbMNOUsUsFObOHg-97" vertex="1">
          <mxGeometry x="60" width="120" height="30" as="geometry">
            <mxRectangle width="120" height="30" as="alternateBounds" />
          </mxGeometry>
        </mxCell>
        <mxCell id="36o1cIbMNOUsUsFObOHg-100" value="DOCUMENTO" style="shape=table;startSize=30;container=1;collapsible=1;childLayout=tableLayout;fixedRows=1;rowLines=0;fontStyle=1;align=center;resizeLast=1;html=1;whiteSpace=wrap;strokeWidth=2;fillColor=#00CCCC;fontColor=#ffffff;strokeColor=#000000;" parent="1" vertex="1">
          <mxGeometry x="930" y="750" width="180" height="180" as="geometry" />
        </mxCell>
        <mxCell id="36o1cIbMNOUsUsFObOHg-260" value="" style="shape=tableRow;horizontal=0;startSize=0;swimlaneHead=0;swimlaneBody=0;fillColor=none;collapsible=0;dropTarget=0;points=[[0,0.5],[1,0.5]];portConstraint=eastwest;top=0;left=0;right=0;bottom=1;html=1;" parent="36o1cIbMNOUsUsFObOHg-100" vertex="1">
          <mxGeometry y="30" width="180" height="30" as="geometry" />
        </mxCell>
        <mxCell id="36o1cIbMNOUsUsFObOHg-261" value="PK" style="shape=partialRectangle;connectable=0;fillColor=#60a917;top=0;left=0;bottom=0;right=0;fontStyle=1;overflow=hidden;html=1;whiteSpace=wrap;fontColor=#ffffff;strokeColor=#2D7600;" parent="36o1cIbMNOUsUsFObOHg-260" vertex="1">
          <mxGeometry width="60" height="30" as="geometry">
            <mxRectangle width="60" height="30" as="alternateBounds" />
          </mxGeometry>
        </mxCell>
        <mxCell id="36o1cIbMNOUsUsFObOHg-262" value="idDocumento" style="shape=partialRectangle;connectable=0;fillColor=#60a917;top=0;left=0;bottom=0;right=0;align=left;spacingLeft=6;fontStyle=5;overflow=hidden;html=1;whiteSpace=wrap;fontColor=#ffffff;strokeColor=#2D7600;" parent="36o1cIbMNOUsUsFObOHg-260" vertex="1">
          <mxGeometry x="60" width="120" height="30" as="geometry">
            <mxRectangle width="120" height="30" as="alternateBounds" />
          </mxGeometry>
        </mxCell>
        <mxCell id="36o1cIbMNOUsUsFObOHg-104" value="" style="shape=tableRow;horizontal=0;startSize=0;swimlaneHead=0;swimlaneBody=0;fillColor=none;collapsible=0;dropTarget=0;points=[[0,0.5],[1,0.5]];portConstraint=eastwest;top=0;left=0;right=0;bottom=1;html=1;" parent="36o1cIbMNOUsUsFObOHg-100" vertex="1">
          <mxGeometry y="60" width="180" height="30" as="geometry" />
        </mxCell>
        <mxCell id="36o1cIbMNOUsUsFObOHg-105" value="FK" style="shape=partialRectangle;connectable=0;fillColor=#007DFC;top=0;left=0;bottom=0;right=0;fontStyle=1;overflow=hidden;html=1;whiteSpace=wrap;fontColor=#ffffff;strokeColor=#2D7600;" parent="36o1cIbMNOUsUsFObOHg-104" vertex="1">
          <mxGeometry width="60" height="30" as="geometry">
            <mxRectangle width="60" height="30" as="alternateBounds" />
          </mxGeometry>
        </mxCell>
        <mxCell id="36o1cIbMNOUsUsFObOHg-106" value="idFuncionario" style="shape=partialRectangle;connectable=0;fillColor=#007DFC;top=0;left=0;bottom=0;right=0;align=left;spacingLeft=6;fontStyle=5;overflow=hidden;html=1;whiteSpace=wrap;fontColor=#ffffff;strokeColor=#2D7600;" parent="36o1cIbMNOUsUsFObOHg-104" vertex="1">
          <mxGeometry x="60" width="120" height="30" as="geometry">
            <mxRectangle width="120" height="30" as="alternateBounds" />
          </mxGeometry>
        </mxCell>
        <mxCell id="36o1cIbMNOUsUsFObOHg-307" value="" style="shape=tableRow;horizontal=0;startSize=0;swimlaneHead=0;swimlaneBody=0;fillColor=none;collapsible=0;dropTarget=0;points=[[0,0.5],[1,0.5]];portConstraint=eastwest;top=0;left=0;right=0;bottom=1;html=1;" parent="36o1cIbMNOUsUsFObOHg-100" vertex="1">
          <mxGeometry y="90" width="180" height="30" as="geometry" />
        </mxCell>
        <mxCell id="36o1cIbMNOUsUsFObOHg-308" value="FK" style="shape=partialRectangle;connectable=0;fillColor=#007DFC;top=0;left=0;bottom=0;right=0;fontStyle=1;overflow=hidden;html=1;whiteSpace=wrap;fontColor=#ffffff;strokeColor=#2D7600;" parent="36o1cIbMNOUsUsFObOHg-307" vertex="1">
          <mxGeometry width="60" height="30" as="geometry">
            <mxRectangle width="60" height="30" as="alternateBounds" />
          </mxGeometry>
        </mxCell>
        <mxCell id="36o1cIbMNOUsUsFObOHg-309" value="idFornecedor" style="shape=partialRectangle;connectable=0;fillColor=#007DFC;top=0;left=0;bottom=0;right=0;align=left;spacingLeft=6;fontStyle=5;overflow=hidden;html=1;whiteSpace=wrap;fontColor=#ffffff;strokeColor=#2D7600;" parent="36o1cIbMNOUsUsFObOHg-307" vertex="1">
          <mxGeometry x="60" width="120" height="30" as="geometry">
            <mxRectangle width="120" height="30" as="alternateBounds" />
          </mxGeometry>
        </mxCell>
        <mxCell id="36o1cIbMNOUsUsFObOHg-107" value="" style="shape=tableRow;horizontal=0;startSize=0;swimlaneHead=0;swimlaneBody=0;fillColor=none;collapsible=0;dropTarget=0;points=[[0,0.5],[1,0.5]];portConstraint=eastwest;top=0;left=0;right=0;bottom=0;html=1;" parent="36o1cIbMNOUsUsFObOHg-100" vertex="1">
          <mxGeometry y="120" width="180" height="30" as="geometry" />
        </mxCell>
        <mxCell id="36o1cIbMNOUsUsFObOHg-108" value="" style="shape=partialRectangle;connectable=0;fillColor=none;top=0;left=0;bottom=0;right=0;editable=1;overflow=hidden;html=1;whiteSpace=wrap;" parent="36o1cIbMNOUsUsFObOHg-107" vertex="1">
          <mxGeometry width="60" height="30" as="geometry">
            <mxRectangle width="60" height="30" as="alternateBounds" />
          </mxGeometry>
        </mxCell>
        <mxCell id="36o1cIbMNOUsUsFObOHg-109" value="tipo" style="shape=partialRectangle;connectable=0;fillColor=none;top=0;left=0;bottom=0;right=0;align=left;spacingLeft=6;overflow=hidden;html=1;whiteSpace=wrap;" parent="36o1cIbMNOUsUsFObOHg-107" vertex="1">
          <mxGeometry x="60" width="120" height="30" as="geometry">
            <mxRectangle width="120" height="30" as="alternateBounds" />
          </mxGeometry>
        </mxCell>
        <mxCell id="36o1cIbMNOUsUsFObOHg-110" value="" style="shape=tableRow;horizontal=0;startSize=0;swimlaneHead=0;swimlaneBody=0;fillColor=none;collapsible=0;dropTarget=0;points=[[0,0.5],[1,0.5]];portConstraint=eastwest;top=0;left=0;right=0;bottom=0;html=1;" parent="36o1cIbMNOUsUsFObOHg-100" vertex="1">
          <mxGeometry y="150" width="180" height="30" as="geometry" />
        </mxCell>
        <mxCell id="36o1cIbMNOUsUsFObOHg-111" value="" style="shape=partialRectangle;connectable=0;fillColor=none;top=0;left=0;bottom=0;right=0;editable=1;overflow=hidden;html=1;whiteSpace=wrap;" parent="36o1cIbMNOUsUsFObOHg-110" vertex="1">
          <mxGeometry width="60" height="30" as="geometry">
            <mxRectangle width="60" height="30" as="alternateBounds" />
          </mxGeometry>
        </mxCell>
        <mxCell id="36o1cIbMNOUsUsFObOHg-112" value="numero" style="shape=partialRectangle;connectable=0;fillColor=none;top=0;left=0;bottom=0;right=0;align=left;spacingLeft=6;overflow=hidden;html=1;whiteSpace=wrap;" parent="36o1cIbMNOUsUsFObOHg-110" vertex="1">
          <mxGeometry x="60" width="120" height="30" as="geometry">
            <mxRectangle width="120" height="30" as="alternateBounds" />
          </mxGeometry>
        </mxCell>
        <mxCell id="36o1cIbMNOUsUsFObOHg-113" value="DEPENDENTE" style="shape=table;startSize=30;container=1;collapsible=1;childLayout=tableLayout;fixedRows=1;rowLines=0;fontStyle=1;align=center;resizeLast=1;html=1;whiteSpace=wrap;strokeWidth=2;fillColor=#00CCCC;fontColor=#ffffff;strokeColor=#000000;" parent="1" vertex="1">
          <mxGeometry x="930" y="530" width="180" height="150" as="geometry" />
        </mxCell>
        <mxCell id="36o1cIbMNOUsUsFObOHg-264" value="" style="shape=tableRow;horizontal=0;startSize=0;swimlaneHead=0;swimlaneBody=0;fillColor=none;collapsible=0;dropTarget=0;points=[[0,0.5],[1,0.5]];portConstraint=eastwest;top=0;left=0;right=0;bottom=1;html=1;" parent="36o1cIbMNOUsUsFObOHg-113" vertex="1">
          <mxGeometry y="30" width="180" height="30" as="geometry" />
        </mxCell>
        <mxCell id="36o1cIbMNOUsUsFObOHg-265" value="PK" style="shape=partialRectangle;connectable=0;fillColor=#60a917;top=0;left=0;bottom=0;right=0;fontStyle=1;overflow=hidden;html=1;whiteSpace=wrap;fontColor=#ffffff;strokeColor=#2D7600;" parent="36o1cIbMNOUsUsFObOHg-264" vertex="1">
          <mxGeometry width="60" height="30" as="geometry">
            <mxRectangle width="60" height="30" as="alternateBounds" />
          </mxGeometry>
        </mxCell>
        <mxCell id="36o1cIbMNOUsUsFObOHg-266" value="idDependente" style="shape=partialRectangle;connectable=0;fillColor=#60a917;top=0;left=0;bottom=0;right=0;align=left;spacingLeft=6;fontStyle=5;overflow=hidden;html=1;whiteSpace=wrap;fontColor=#ffffff;strokeColor=#2D7600;" parent="36o1cIbMNOUsUsFObOHg-264" vertex="1">
          <mxGeometry x="60" width="120" height="30" as="geometry">
            <mxRectangle width="120" height="30" as="alternateBounds" />
          </mxGeometry>
        </mxCell>
        <mxCell id="36o1cIbMNOUsUsFObOHg-117" value="" style="shape=tableRow;horizontal=0;startSize=0;swimlaneHead=0;swimlaneBody=0;fillColor=none;collapsible=0;dropTarget=0;points=[[0,0.5],[1,0.5]];portConstraint=eastwest;top=0;left=0;right=0;bottom=1;html=1;" parent="36o1cIbMNOUsUsFObOHg-113" vertex="1">
          <mxGeometry y="60" width="180" height="30" as="geometry" />
        </mxCell>
        <mxCell id="36o1cIbMNOUsUsFObOHg-118" value="FK" style="shape=partialRectangle;connectable=0;fillColor=#007DFC;top=0;left=0;bottom=0;right=0;fontStyle=1;overflow=hidden;html=1;whiteSpace=wrap;fontColor=#ffffff;strokeColor=#2D7600;" parent="36o1cIbMNOUsUsFObOHg-117" vertex="1">
          <mxGeometry width="60" height="30" as="geometry">
            <mxRectangle width="60" height="30" as="alternateBounds" />
          </mxGeometry>
        </mxCell>
        <mxCell id="36o1cIbMNOUsUsFObOHg-119" value="idFuncionario" style="shape=partialRectangle;connectable=0;fillColor=#007DFC;top=0;left=0;bottom=0;right=0;align=left;spacingLeft=6;fontStyle=5;overflow=hidden;html=1;whiteSpace=wrap;fontColor=#ffffff;strokeColor=#2D7600;" parent="36o1cIbMNOUsUsFObOHg-117" vertex="1">
          <mxGeometry x="60" width="120" height="30" as="geometry">
            <mxRectangle width="120" height="30" as="alternateBounds" />
          </mxGeometry>
        </mxCell>
        <mxCell id="36o1cIbMNOUsUsFObOHg-120" value="" style="shape=tableRow;horizontal=0;startSize=0;swimlaneHead=0;swimlaneBody=0;fillColor=none;collapsible=0;dropTarget=0;points=[[0,0.5],[1,0.5]];portConstraint=eastwest;top=0;left=0;right=0;bottom=0;html=1;" parent="36o1cIbMNOUsUsFObOHg-113" vertex="1">
          <mxGeometry y="90" width="180" height="30" as="geometry" />
        </mxCell>
        <mxCell id="36o1cIbMNOUsUsFObOHg-121" value="" style="shape=partialRectangle;connectable=0;fillColor=none;top=0;left=0;bottom=0;right=0;editable=1;overflow=hidden;html=1;whiteSpace=wrap;" parent="36o1cIbMNOUsUsFObOHg-120" vertex="1">
          <mxGeometry width="60" height="30" as="geometry">
            <mxRectangle width="60" height="30" as="alternateBounds" />
          </mxGeometry>
        </mxCell>
        <mxCell id="36o1cIbMNOUsUsFObOHg-122" value="parentesco" style="shape=partialRectangle;connectable=0;fillColor=none;top=0;left=0;bottom=0;right=0;align=left;spacingLeft=6;overflow=hidden;html=1;whiteSpace=wrap;" parent="36o1cIbMNOUsUsFObOHg-120" vertex="1">
          <mxGeometry x="60" width="120" height="30" as="geometry">
            <mxRectangle width="120" height="30" as="alternateBounds" />
          </mxGeometry>
        </mxCell>
        <mxCell id="36o1cIbMNOUsUsFObOHg-123" value="" style="shape=tableRow;horizontal=0;startSize=0;swimlaneHead=0;swimlaneBody=0;fillColor=none;collapsible=0;dropTarget=0;points=[[0,0.5],[1,0.5]];portConstraint=eastwest;top=0;left=0;right=0;bottom=0;html=1;" parent="36o1cIbMNOUsUsFObOHg-113" vertex="1">
          <mxGeometry y="120" width="180" height="30" as="geometry" />
        </mxCell>
        <mxCell id="36o1cIbMNOUsUsFObOHg-124" value="" style="shape=partialRectangle;connectable=0;fillColor=none;top=0;left=0;bottom=0;right=0;editable=1;overflow=hidden;html=1;whiteSpace=wrap;" parent="36o1cIbMNOUsUsFObOHg-123" vertex="1">
          <mxGeometry width="60" height="30" as="geometry">
            <mxRectangle width="60" height="30" as="alternateBounds" />
          </mxGeometry>
        </mxCell>
        <mxCell id="36o1cIbMNOUsUsFObOHg-125" value="nomeCompleto" style="shape=partialRectangle;connectable=0;fillColor=none;top=0;left=0;bottom=0;right=0;align=left;spacingLeft=6;overflow=hidden;html=1;whiteSpace=wrap;" parent="36o1cIbMNOUsUsFObOHg-123" vertex="1">
          <mxGeometry x="60" width="120" height="30" as="geometry">
            <mxRectangle width="120" height="30" as="alternateBounds" />
          </mxGeometry>
        </mxCell>
        <mxCell id="36o1cIbMNOUsUsFObOHg-126" value="CONTRATO_CLT" style="shape=table;startSize=30;container=1;collapsible=1;childLayout=tableLayout;fixedRows=1;rowLines=0;fontStyle=1;align=center;resizeLast=1;html=1;whiteSpace=wrap;strokeWidth=2;fillColor=#00CCCC;fontColor=#ffffff;strokeColor=#000000;" parent="1" vertex="1">
          <mxGeometry x="440" y="590" width="180" height="270" as="geometry">
            <mxRectangle x="440" y="590" width="140" height="30" as="alternateBounds" />
          </mxGeometry>
        </mxCell>
        <mxCell id="36o1cIbMNOUsUsFObOHg-257" value="" style="shape=tableRow;horizontal=0;startSize=0;swimlaneHead=0;swimlaneBody=0;fillColor=none;collapsible=0;dropTarget=0;points=[[0,0.5],[1,0.5]];portConstraint=eastwest;top=0;left=0;right=0;bottom=1;html=1;" parent="36o1cIbMNOUsUsFObOHg-126" vertex="1">
          <mxGeometry y="30" width="180" height="30" as="geometry" />
        </mxCell>
        <mxCell id="36o1cIbMNOUsUsFObOHg-258" value="PK" style="shape=partialRectangle;connectable=0;fillColor=#60a917;top=0;left=0;bottom=0;right=0;fontStyle=1;overflow=hidden;html=1;whiteSpace=wrap;fontColor=#ffffff;strokeColor=#2D7600;" parent="36o1cIbMNOUsUsFObOHg-257" vertex="1">
          <mxGeometry width="60" height="30" as="geometry">
            <mxRectangle width="60" height="30" as="alternateBounds" />
          </mxGeometry>
        </mxCell>
        <mxCell id="36o1cIbMNOUsUsFObOHg-259" value="idContrato" style="shape=partialRectangle;connectable=0;fillColor=#60a917;top=0;left=0;bottom=0;right=0;align=left;spacingLeft=6;fontStyle=5;overflow=hidden;html=1;whiteSpace=wrap;fontColor=#ffffff;strokeColor=#2D7600;" parent="36o1cIbMNOUsUsFObOHg-257" vertex="1">
          <mxGeometry x="60" width="120" height="30" as="geometry">
            <mxRectangle width="120" height="30" as="alternateBounds" />
          </mxGeometry>
        </mxCell>
        <mxCell id="36o1cIbMNOUsUsFObOHg-130" value="" style="shape=tableRow;horizontal=0;startSize=0;swimlaneHead=0;swimlaneBody=0;fillColor=none;collapsible=0;dropTarget=0;points=[[0,0.5],[1,0.5]];portConstraint=eastwest;top=0;left=0;right=0;bottom=1;html=1;" parent="36o1cIbMNOUsUsFObOHg-126" vertex="1">
          <mxGeometry y="60" width="180" height="30" as="geometry" />
        </mxCell>
        <mxCell id="36o1cIbMNOUsUsFObOHg-131" value="FK" style="shape=partialRectangle;connectable=0;fillColor=#007DFC;top=0;left=0;bottom=0;right=0;fontStyle=1;overflow=hidden;html=1;whiteSpace=wrap;fontColor=#ffffff;strokeColor=#2D7600;" parent="36o1cIbMNOUsUsFObOHg-130" vertex="1">
          <mxGeometry width="60" height="30" as="geometry">
            <mxRectangle width="60" height="30" as="alternateBounds" />
          </mxGeometry>
        </mxCell>
        <mxCell id="36o1cIbMNOUsUsFObOHg-132" value="idFuncionario" style="shape=partialRectangle;connectable=0;fillColor=#007DFC;top=0;left=0;bottom=0;right=0;align=left;spacingLeft=6;fontStyle=5;overflow=hidden;html=1;whiteSpace=wrap;fontColor=#ffffff;strokeColor=#2D7600;" parent="36o1cIbMNOUsUsFObOHg-130" vertex="1">
          <mxGeometry x="60" width="120" height="30" as="geometry">
            <mxRectangle width="120" height="30" as="alternateBounds" />
          </mxGeometry>
        </mxCell>
        <mxCell id="36o1cIbMNOUsUsFObOHg-133" value="" style="shape=tableRow;horizontal=0;startSize=0;swimlaneHead=0;swimlaneBody=0;fillColor=none;collapsible=0;dropTarget=0;points=[[0,0.5],[1,0.5]];portConstraint=eastwest;top=0;left=0;right=0;bottom=0;html=1;" parent="36o1cIbMNOUsUsFObOHg-126" vertex="1">
          <mxGeometry y="90" width="180" height="30" as="geometry" />
        </mxCell>
        <mxCell id="36o1cIbMNOUsUsFObOHg-134" value="" style="shape=partialRectangle;connectable=0;fillColor=none;top=0;left=0;bottom=0;right=0;editable=1;overflow=hidden;html=1;whiteSpace=wrap;" parent="36o1cIbMNOUsUsFObOHg-133" vertex="1">
          <mxGeometry width="60" height="30" as="geometry">
            <mxRectangle width="60" height="30" as="alternateBounds" />
          </mxGeometry>
        </mxCell>
        <mxCell id="36o1cIbMNOUsUsFObOHg-135" value="departamento" style="shape=partialRectangle;connectable=0;fillColor=none;top=0;left=0;bottom=0;right=0;align=left;spacingLeft=6;overflow=hidden;html=1;whiteSpace=wrap;" parent="36o1cIbMNOUsUsFObOHg-133" vertex="1">
          <mxGeometry x="60" width="120" height="30" as="geometry">
            <mxRectangle width="120" height="30" as="alternateBounds" />
          </mxGeometry>
        </mxCell>
        <mxCell id="36o1cIbMNOUsUsFObOHg-136" value="" style="shape=tableRow;horizontal=0;startSize=0;swimlaneHead=0;swimlaneBody=0;fillColor=none;collapsible=0;dropTarget=0;points=[[0,0.5],[1,0.5]];portConstraint=eastwest;top=0;left=0;right=0;bottom=0;html=1;" parent="36o1cIbMNOUsUsFObOHg-126" vertex="1">
          <mxGeometry y="120" width="180" height="30" as="geometry" />
        </mxCell>
        <mxCell id="36o1cIbMNOUsUsFObOHg-137" value="" style="shape=partialRectangle;connectable=0;fillColor=none;top=0;left=0;bottom=0;right=0;editable=1;overflow=hidden;html=1;whiteSpace=wrap;" parent="36o1cIbMNOUsUsFObOHg-136" vertex="1">
          <mxGeometry width="60" height="30" as="geometry">
            <mxRectangle width="60" height="30" as="alternateBounds" />
          </mxGeometry>
        </mxCell>
        <mxCell id="36o1cIbMNOUsUsFObOHg-138" value="cargo" style="shape=partialRectangle;connectable=0;fillColor=none;top=0;left=0;bottom=0;right=0;align=left;spacingLeft=6;overflow=hidden;html=1;whiteSpace=wrap;" parent="36o1cIbMNOUsUsFObOHg-136" vertex="1">
          <mxGeometry x="60" width="120" height="30" as="geometry">
            <mxRectangle width="120" height="30" as="alternateBounds" />
          </mxGeometry>
        </mxCell>
        <mxCell id="36o1cIbMNOUsUsFObOHg-139" value="" style="shape=tableRow;horizontal=0;startSize=0;swimlaneHead=0;swimlaneBody=0;fillColor=none;collapsible=0;dropTarget=0;points=[[0,0.5],[1,0.5]];portConstraint=eastwest;top=0;left=0;right=0;bottom=0;html=1;" parent="36o1cIbMNOUsUsFObOHg-126" vertex="1">
          <mxGeometry y="150" width="180" height="30" as="geometry" />
        </mxCell>
        <mxCell id="36o1cIbMNOUsUsFObOHg-140" value="" style="shape=partialRectangle;connectable=0;fillColor=none;top=0;left=0;bottom=0;right=0;editable=1;overflow=hidden;html=1;whiteSpace=wrap;" parent="36o1cIbMNOUsUsFObOHg-139" vertex="1">
          <mxGeometry width="60" height="30" as="geometry">
            <mxRectangle width="60" height="30" as="alternateBounds" />
          </mxGeometry>
        </mxCell>
        <mxCell id="36o1cIbMNOUsUsFObOHg-141" value="cargaHoraria" style="shape=partialRectangle;connectable=0;fillColor=none;top=0;left=0;bottom=0;right=0;align=left;spacingLeft=6;overflow=hidden;html=1;whiteSpace=wrap;" parent="36o1cIbMNOUsUsFObOHg-139" vertex="1">
          <mxGeometry x="60" width="120" height="30" as="geometry">
            <mxRectangle width="120" height="30" as="alternateBounds" />
          </mxGeometry>
        </mxCell>
        <mxCell id="36o1cIbMNOUsUsFObOHg-142" value="" style="shape=tableRow;horizontal=0;startSize=0;swimlaneHead=0;swimlaneBody=0;fillColor=none;collapsible=0;dropTarget=0;points=[[0,0.5],[1,0.5]];portConstraint=eastwest;top=0;left=0;right=0;bottom=0;html=1;" parent="36o1cIbMNOUsUsFObOHg-126" vertex="1">
          <mxGeometry y="180" width="180" height="30" as="geometry" />
        </mxCell>
        <mxCell id="36o1cIbMNOUsUsFObOHg-143" value="" style="shape=partialRectangle;connectable=0;fillColor=none;top=0;left=0;bottom=0;right=0;editable=1;overflow=hidden;html=1;whiteSpace=wrap;" parent="36o1cIbMNOUsUsFObOHg-142" vertex="1">
          <mxGeometry width="60" height="30" as="geometry">
            <mxRectangle width="60" height="30" as="alternateBounds" />
          </mxGeometry>
        </mxCell>
        <mxCell id="36o1cIbMNOUsUsFObOHg-144" value="dataAdm" style="shape=partialRectangle;connectable=0;fillColor=none;top=0;left=0;bottom=0;right=0;align=left;spacingLeft=6;overflow=hidden;html=1;whiteSpace=wrap;" parent="36o1cIbMNOUsUsFObOHg-142" vertex="1">
          <mxGeometry x="60" width="120" height="30" as="geometry">
            <mxRectangle width="120" height="30" as="alternateBounds" />
          </mxGeometry>
        </mxCell>
        <mxCell id="36o1cIbMNOUsUsFObOHg-145" value="" style="shape=tableRow;horizontal=0;startSize=0;swimlaneHead=0;swimlaneBody=0;fillColor=none;collapsible=0;dropTarget=0;points=[[0,0.5],[1,0.5]];portConstraint=eastwest;top=0;left=0;right=0;bottom=0;html=1;" parent="36o1cIbMNOUsUsFObOHg-126" vertex="1">
          <mxGeometry y="210" width="180" height="30" as="geometry" />
        </mxCell>
        <mxCell id="36o1cIbMNOUsUsFObOHg-146" value="" style="shape=partialRectangle;connectable=0;fillColor=none;top=0;left=0;bottom=0;right=0;editable=1;overflow=hidden;html=1;whiteSpace=wrap;" parent="36o1cIbMNOUsUsFObOHg-145" vertex="1">
          <mxGeometry width="60" height="30" as="geometry">
            <mxRectangle width="60" height="30" as="alternateBounds" />
          </mxGeometry>
        </mxCell>
        <mxCell id="36o1cIbMNOUsUsFObOHg-147" value="salario" style="shape=partialRectangle;connectable=0;fillColor=none;top=0;left=0;bottom=0;right=0;align=left;spacingLeft=6;overflow=hidden;html=1;whiteSpace=wrap;" parent="36o1cIbMNOUsUsFObOHg-145" vertex="1">
          <mxGeometry x="60" width="120" height="30" as="geometry">
            <mxRectangle width="120" height="30" as="alternateBounds" />
          </mxGeometry>
        </mxCell>
        <mxCell id="36o1cIbMNOUsUsFObOHg-148" value="" style="shape=tableRow;horizontal=0;startSize=0;swimlaneHead=0;swimlaneBody=0;fillColor=none;collapsible=0;dropTarget=0;points=[[0,0.5],[1,0.5]];portConstraint=eastwest;top=0;left=0;right=0;bottom=0;html=1;" parent="36o1cIbMNOUsUsFObOHg-126" vertex="1">
          <mxGeometry y="240" width="180" height="30" as="geometry" />
        </mxCell>
        <mxCell id="36o1cIbMNOUsUsFObOHg-149" value="" style="shape=partialRectangle;connectable=0;fillColor=none;top=0;left=0;bottom=0;right=0;editable=1;overflow=hidden;html=1;whiteSpace=wrap;" parent="36o1cIbMNOUsUsFObOHg-148" vertex="1">
          <mxGeometry width="60" height="30" as="geometry">
            <mxRectangle width="60" height="30" as="alternateBounds" />
          </mxGeometry>
        </mxCell>
        <mxCell id="36o1cIbMNOUsUsFObOHg-150" value="dataDem" style="shape=partialRectangle;connectable=0;fillColor=none;top=0;left=0;bottom=0;right=0;align=left;spacingLeft=6;overflow=hidden;html=1;whiteSpace=wrap;" parent="36o1cIbMNOUsUsFObOHg-148" vertex="1">
          <mxGeometry x="60" width="120" height="30" as="geometry">
            <mxRectangle width="120" height="30" as="alternateBounds" />
          </mxGeometry>
        </mxCell>
        <mxCell id="36o1cIbMNOUsUsFObOHg-151" style="edgeStyle=orthogonalEdgeStyle;rounded=0;orthogonalLoop=1;jettySize=auto;html=1;exitX=1;exitY=0.5;exitDx=0;exitDy=0;entryX=0.011;entryY=0.767;entryDx=0;entryDy=0;entryPerimeter=0;endArrow=ERmany;endFill=0;strokeWidth=3;" parent="1" source="36o1cIbMNOUsUsFObOHg-25" target="36o1cIbMNOUsUsFObOHg-53" edge="1">
          <mxGeometry relative="1" as="geometry" />
        </mxCell>
        <mxCell id="36o1cIbMNOUsUsFObOHg-152" style="edgeStyle=orthogonalEdgeStyle;rounded=0;orthogonalLoop=1;jettySize=auto;html=1;exitX=1;exitY=0.5;exitDx=0;exitDy=0;entryX=0;entryY=0.5;entryDx=0;entryDy=0;endSize=10;endArrow=ERmany;endFill=0;strokeWidth=3;strokeColor=#000000;" parent="1" source="36o1cIbMNOUsUsFObOHg-155" target="36o1cIbMNOUsUsFObOHg-158" edge="1">
          <mxGeometry relative="1" as="geometry" />
        </mxCell>
        <mxCell id="36o1cIbMNOUsUsFObOHg-153" style="edgeStyle=orthogonalEdgeStyle;rounded=0;orthogonalLoop=1;jettySize=auto;html=1;entryX=0;entryY=0.5;entryDx=0;entryDy=0;endArrow=ERmany;endFill=0;endSize=10;strokeWidth=3;strokeColor=#000000;" parent="1" source="36o1cIbMNOUsUsFObOHg-155" target="36o1cIbMNOUsUsFObOHg-159" edge="1">
          <mxGeometry relative="1" as="geometry" />
        </mxCell>
        <mxCell id="36o1cIbMNOUsUsFObOHg-154" style="edgeStyle=orthogonalEdgeStyle;rounded=0;orthogonalLoop=1;jettySize=auto;html=1;entryX=0;entryY=0.5;entryDx=0;entryDy=0;endArrow=ERmany;endFill=0;endSize=10;strokeWidth=3;strokeColor=#000000;" parent="1" source="36o1cIbMNOUsUsFObOHg-155" target="36o1cIbMNOUsUsFObOHg-160" edge="1">
          <mxGeometry relative="1" as="geometry">
            <Array as="points">
              <mxPoint x="416" y="-683.5" />
            </Array>
          </mxGeometry>
        </mxCell>
        <mxCell id="36o1cIbMNOUsUsFObOHg-155" value="NECESSITA" style="shape=rhombus;perimeter=rhombusPerimeter;whiteSpace=wrap;html=1;align=center;strokeWidth=3;strokeColor=#000000;" parent="1" vertex="1">
          <mxGeometry x="356" y="-858.5" width="120" height="60" as="geometry" />
        </mxCell>
        <mxCell id="36o1cIbMNOUsUsFObOHg-156" style="edgeStyle=orthogonalEdgeStyle;rounded=0;orthogonalLoop=1;jettySize=auto;html=1;exitX=1;exitY=0.5;exitDx=0;exitDy=0;entryX=0;entryY=0.5;entryDx=0;entryDy=0;endArrow=none;endFill=0;startArrow=ERmandOne;startFill=0;strokeWidth=3;endSize=6;startSize=10;strokeColor=#000000;" parent="1" source="36o1cIbMNOUsUsFObOHg-157" target="36o1cIbMNOUsUsFObOHg-155" edge="1">
          <mxGeometry relative="1" as="geometry" />
        </mxCell>
        <mxCell id="36o1cIbMNOUsUsFObOHg-157" value="FUNCIONARIO" style="ellipse;whiteSpace=wrap;html=1;align=center;strokeWidth=3;strokeColor=#000000;" parent="1" vertex="1">
          <mxGeometry x="180" y="-848.5" width="100" height="40" as="geometry" />
        </mxCell>
        <mxCell id="36o1cIbMNOUsUsFObOHg-158" value="ENDERECO" style="ellipse;whiteSpace=wrap;html=1;align=center;strokeWidth=3;strokeColor=#000000;" parent="1" vertex="1">
          <mxGeometry x="619" y="-848.5" width="100" height="40" as="geometry" />
        </mxCell>
        <mxCell id="36o1cIbMNOUsUsFObOHg-159" value="CONTATO_T" style="ellipse;whiteSpace=wrap;html=1;align=center;strokeWidth=3;strokeColor=#000000;" parent="1" vertex="1">
          <mxGeometry x="619" y="-763.5" width="100" height="40" as="geometry" />
        </mxCell>
        <mxCell id="36o1cIbMNOUsUsFObOHg-160" value="CONTATO_E" style="ellipse;whiteSpace=wrap;html=1;align=center;strokeWidth=3;strokeColor=#000000;" parent="1" vertex="1">
          <mxGeometry x="619" y="-703.5" width="100" height="40" as="geometry" />
        </mxCell>
        <mxCell id="36o1cIbMNOUsUsFObOHg-164" style="edgeStyle=orthogonalEdgeStyle;rounded=0;orthogonalLoop=1;jettySize=auto;html=1;exitX=1;exitY=0.5;exitDx=0;exitDy=0;entryX=0;entryY=0.5;entryDx=0;entryDy=0;strokeWidth=3;endArrow=ERmandOne;endFill=0;" parent="1" source="36o1cIbMNOUsUsFObOHg-25" target="36o1cIbMNOUsUsFObOHg-130" edge="1">
          <mxGeometry relative="1" as="geometry" />
        </mxCell>
        <mxCell id="36o1cIbMNOUsUsFObOHg-169" style="edgeStyle=orthogonalEdgeStyle;rounded=0;orthogonalLoop=1;jettySize=auto;html=1;exitX=1;exitY=0.5;exitDx=0;exitDy=0;entryX=0;entryY=0.5;entryDx=0;entryDy=0;strokeWidth=3;endArrow=ERmany;endFill=0;" parent="1" source="36o1cIbMNOUsUsFObOHg-25" target="36o1cIbMNOUsUsFObOHg-117" edge="1">
          <mxGeometry relative="1" as="geometry">
            <Array as="points">
              <mxPoint x="300" y="375" />
              <mxPoint x="670" y="375" />
              <mxPoint x="670" y="605" />
            </Array>
          </mxGeometry>
        </mxCell>
        <mxCell id="36o1cIbMNOUsUsFObOHg-170" style="edgeStyle=orthogonalEdgeStyle;rounded=0;orthogonalLoop=1;jettySize=auto;html=1;exitX=1;exitY=0.5;exitDx=0;exitDy=0;entryX=0;entryY=0.5;entryDx=0;entryDy=0;strokeWidth=3;endArrow=ERmany;endFill=0;" parent="1" source="36o1cIbMNOUsUsFObOHg-25" target="36o1cIbMNOUsUsFObOHg-104" edge="1">
          <mxGeometry relative="1" as="geometry">
            <Array as="points">
              <mxPoint x="300" y="375" />
              <mxPoint x="670" y="375" />
              <mxPoint x="670" y="825" />
            </Array>
          </mxGeometry>
        </mxCell>
        <mxCell id="36o1cIbMNOUsUsFObOHg-171" style="edgeStyle=orthogonalEdgeStyle;rounded=0;orthogonalLoop=1;jettySize=auto;html=1;exitX=1;exitY=0.5;exitDx=0;exitDy=0;entryX=-0.006;entryY=0.317;entryDx=0;entryDy=0;entryPerimeter=0;strokeWidth=3;endArrow=ERmany;endFill=0;" parent="1" source="36o1cIbMNOUsUsFObOHg-25" target="36o1cIbMNOUsUsFObOHg-91" edge="1">
          <mxGeometry relative="1" as="geometry">
            <Array as="points">
              <mxPoint x="300" y="375" />
              <mxPoint x="670" y="375" />
              <mxPoint x="670" y="169" />
            </Array>
          </mxGeometry>
        </mxCell>
        <mxCell id="36o1cIbMNOUsUsFObOHg-172" style="edgeStyle=orthogonalEdgeStyle;rounded=0;orthogonalLoop=1;jettySize=auto;html=1;exitX=1;exitY=0.5;exitDx=0;exitDy=0;entryX=0;entryY=0.5;entryDx=0;entryDy=0;strokeWidth=3;endArrow=ERmany;endFill=0;startArrow=ERmandOne;startFill=0;" parent="1" source="36o1cIbMNOUsUsFObOHg-25" target="36o1cIbMNOUsUsFObOHg-78" edge="1">
          <mxGeometry relative="1" as="geometry" />
        </mxCell>
        <mxCell id="Qpe2BQ7Be4wpJGZ6nQwp-3" value="1" style="edgeLabel;html=1;align=center;verticalAlign=middle;resizable=0;points=[];fontSize=18;" parent="36o1cIbMNOUsUsFObOHg-172" vertex="1" connectable="0">
          <mxGeometry x="-0.8954" y="8" relative="1" as="geometry">
            <mxPoint x="-3" y="-21" as="offset" />
          </mxGeometry>
        </mxCell>
        <mxCell id="36o1cIbMNOUsUsFObOHg-276" value="&lt;span style=&quot;border-bottom: 1px dotted&quot;&gt;FORNECEDOR&lt;/span&gt;" style="ellipse;whiteSpace=wrap;html=1;align=center;strokeWidth=3;strokeColor=#000000;" parent="1" vertex="1">
          <mxGeometry x="920" y="-860" width="100" height="40" as="geometry" />
        </mxCell>
        <mxCell id="36o1cIbMNOUsUsFObOHg-277" style="edgeStyle=orthogonalEdgeStyle;rounded=0;orthogonalLoop=1;jettySize=auto;html=1;exitX=0;exitY=0.5;exitDx=0;exitDy=0;entryX=1;entryY=0.5;entryDx=0;entryDy=0;endArrow=ERmandOne;endFill=0;startArrow=none;startFill=0;strokeWidth=3;strokeColor=#000000;" parent="1" target="36o1cIbMNOUsUsFObOHg-276" edge="1">
          <mxGeometry relative="1" as="geometry">
            <mxPoint x="1100" y="-840" as="sourcePoint" />
          </mxGeometry>
        </mxCell>
        <mxCell id="36o1cIbMNOUsUsFObOHg-278" style="edgeStyle=orthogonalEdgeStyle;rounded=0;orthogonalLoop=1;jettySize=auto;html=1;exitX=1;exitY=0.5;exitDx=0;exitDy=0;entryX=0;entryY=0.5;entryDx=0;entryDy=0;endArrow=ERmany;endFill=0;strokeWidth=3;strokeColor=#000000;" parent="1" target="36o1cIbMNOUsUsFObOHg-279" edge="1">
          <mxGeometry relative="1" as="geometry">
            <mxPoint x="1220" y="-840" as="sourcePoint" />
          </mxGeometry>
        </mxCell>
        <mxCell id="36o1cIbMNOUsUsFObOHg-279" value="&lt;span style=&quot;border-bottom: 1px dotted&quot;&gt;ENDEREÇO&lt;/span&gt;" style="ellipse;whiteSpace=wrap;html=1;align=center;strokeWidth=3;strokeColor=#000000;" parent="1" vertex="1">
          <mxGeometry x="1350" y="-860" width="100" height="40" as="geometry" />
        </mxCell>
        <mxCell id="36o1cIbMNOUsUsFObOHg-280" style="edgeStyle=orthogonalEdgeStyle;rounded=0;orthogonalLoop=1;jettySize=auto;html=1;exitX=1;exitY=0.5;exitDx=0;exitDy=0;entryX=0;entryY=0.5;entryDx=0;entryDy=0;endArrow=ERmany;endFill=0;strokeWidth=3;strokeColor=#000000;" parent="1" source="36o1cIbMNOUsUsFObOHg-282" target="36o1cIbMNOUsUsFObOHg-283" edge="1">
          <mxGeometry relative="1" as="geometry">
            <Array as="points">
              <mxPoint x="1240" y="-840" />
              <mxPoint x="1240" y="-760" />
            </Array>
          </mxGeometry>
        </mxCell>
        <mxCell id="36o1cIbMNOUsUsFObOHg-281" style="edgeStyle=orthogonalEdgeStyle;rounded=0;orthogonalLoop=1;jettySize=auto;html=1;exitX=1;exitY=0.5;exitDx=0;exitDy=0;endArrow=ERmany;endFill=0;strokeWidth=3;strokeColor=#000000;" parent="1" source="36o1cIbMNOUsUsFObOHg-282" target="36o1cIbMNOUsUsFObOHg-284" edge="1">
          <mxGeometry relative="1" as="geometry">
            <mxPoint x="1280" y="-680" as="targetPoint" />
            <Array as="points">
              <mxPoint x="1160" y="-840" />
              <mxPoint x="1160" y="-692" />
            </Array>
          </mxGeometry>
        </mxCell>
        <mxCell id="36o1cIbMNOUsUsFObOHg-282" value="NECESSITA" style="shape=rhombus;perimeter=rhombusPerimeter;whiteSpace=wrap;html=1;align=center;strokeWidth=3;strokeColor=#000000;" parent="1" vertex="1">
          <mxGeometry x="1100" y="-870" width="120" height="60" as="geometry" />
        </mxCell>
        <mxCell id="36o1cIbMNOUsUsFObOHg-283" value="&lt;span style=&quot;border-bottom: 1px dotted&quot;&gt;CONTATO T&lt;/span&gt;" style="ellipse;whiteSpace=wrap;html=1;align=center;strokeWidth=3;strokeColor=#000000;" parent="1" vertex="1">
          <mxGeometry x="1350" y="-781" width="100" height="40" as="geometry" />
        </mxCell>
        <mxCell id="36o1cIbMNOUsUsFObOHg-284" value="&lt;span style=&quot;border-bottom: 1px dotted&quot;&gt;CONTATO_E&lt;/span&gt;" style="ellipse;whiteSpace=wrap;html=1;align=center;strokeWidth=3;strokeColor=#000000;" parent="1" vertex="1">
          <mxGeometry x="1350" y="-715" width="100" height="40" as="geometry" />
        </mxCell>
        <mxCell id="36o1cIbMNOUsUsFObOHg-285" value="Documento" style="ellipse;whiteSpace=wrap;html=1;align=center;strokeWidth=3;strokeColor=#000000;" parent="1" vertex="1">
          <mxGeometry x="1350" y="-640" width="100" height="40" as="geometry" />
        </mxCell>
        <mxCell id="36o1cIbMNOUsUsFObOHg-286" style="edgeStyle=orthogonalEdgeStyle;rounded=0;orthogonalLoop=1;jettySize=auto;html=1;exitX=0.5;exitY=1;exitDx=0;exitDy=0;entryX=0;entryY=0.5;entryDx=0;entryDy=0;entryPerimeter=0;endArrow=ERmany;endFill=0;strokeWidth=3;strokeColor=#000000;" parent="1" source="36o1cIbMNOUsUsFObOHg-282" target="36o1cIbMNOUsUsFObOHg-285" edge="1">
          <mxGeometry relative="1" as="geometry" />
        </mxCell>
        <mxCell id="36o1cIbMNOUsUsFObOHg-288" value="FORNECEDOR" style="shape=table;startSize=30;container=1;collapsible=0;childLayout=tableLayout;fixedRows=1;rowLines=0;fontStyle=1;strokeColor=default;fontSize=13;fillColor=#00CCCC;strokeWidth=2;spacing=5;fontColor=#FFFFFF;" parent="1" vertex="1">
          <mxGeometry x="1340" y="410" width="180" height="120" as="geometry" />
        </mxCell>
        <mxCell id="36o1cIbMNOUsUsFObOHg-289" value="" style="shape=tableRow;horizontal=0;startSize=0;swimlaneHead=0;swimlaneBody=0;top=0;left=0;bottom=0;right=0;collapsible=0;dropTarget=0;fillColor=none;points=[[0,0.5],[1,0.5]];portConstraint=eastwest;strokeColor=inherit;fontSize=16;" parent="36o1cIbMNOUsUsFObOHg-288" vertex="1">
          <mxGeometry y="30" width="180" height="30" as="geometry" />
        </mxCell>
        <mxCell id="36o1cIbMNOUsUsFObOHg-290" value="&lt;font style=&quot;font-size: 12px;&quot;&gt;PK&lt;/font&gt;" style="shape=partialRectangle;html=1;whiteSpace=wrap;connectable=0;fillColor=#60A917;top=0;left=0;bottom=0;right=0;overflow=hidden;pointerEvents=1;strokeColor=inherit;fontSize=16;fontColor=#FFFFFF;" parent="36o1cIbMNOUsUsFObOHg-289" vertex="1">
          <mxGeometry width="40" height="30" as="geometry">
            <mxRectangle width="40" height="30" as="alternateBounds" />
          </mxGeometry>
        </mxCell>
        <mxCell id="36o1cIbMNOUsUsFObOHg-291" value="idFornecedor" style="shape=partialRectangle;html=1;whiteSpace=wrap;connectable=0;fillColor=#60A917;top=0;left=0;bottom=0;right=0;align=left;spacingLeft=6;overflow=hidden;strokeColor=inherit;fontSize=12;fontColor=#FFFFFF;fontStyle=1" parent="36o1cIbMNOUsUsFObOHg-289" vertex="1">
          <mxGeometry x="40" width="140" height="30" as="geometry">
            <mxRectangle width="140" height="30" as="alternateBounds" />
          </mxGeometry>
        </mxCell>
        <mxCell id="36o1cIbMNOUsUsFObOHg-292" value="" style="shape=tableRow;horizontal=0;startSize=0;swimlaneHead=0;swimlaneBody=0;top=0;left=0;bottom=0;right=0;collapsible=0;dropTarget=0;fillColor=none;points=[[0,0.5],[1,0.5]];portConstraint=eastwest;strokeColor=inherit;fontSize=16;" parent="36o1cIbMNOUsUsFObOHg-288" vertex="1">
          <mxGeometry y="60" width="180" height="30" as="geometry" />
        </mxCell>
        <mxCell id="36o1cIbMNOUsUsFObOHg-293" value="" style="shape=partialRectangle;html=1;whiteSpace=wrap;connectable=0;fillColor=none;top=0;left=0;bottom=0;right=0;overflow=hidden;strokeColor=inherit;fontSize=16;" parent="36o1cIbMNOUsUsFObOHg-292" vertex="1">
          <mxGeometry width="40" height="30" as="geometry">
            <mxRectangle width="40" height="30" as="alternateBounds" />
          </mxGeometry>
        </mxCell>
        <mxCell id="36o1cIbMNOUsUsFObOHg-294" value="&lt;b style=&quot;font-size: 12px;&quot;&gt;nomeSocial&lt;/b&gt;" style="shape=partialRectangle;html=1;whiteSpace=wrap;connectable=0;fillColor=none;top=0;left=0;bottom=0;right=0;align=left;spacingLeft=6;overflow=hidden;strokeColor=inherit;fontSize=12;" parent="36o1cIbMNOUsUsFObOHg-292" vertex="1">
          <mxGeometry x="40" width="140" height="30" as="geometry">
            <mxRectangle width="140" height="30" as="alternateBounds" />
          </mxGeometry>
        </mxCell>
        <mxCell id="36o1cIbMNOUsUsFObOHg-295" value="" style="shape=tableRow;horizontal=0;startSize=0;swimlaneHead=0;swimlaneBody=0;top=0;left=0;bottom=0;right=0;collapsible=0;dropTarget=0;fillColor=none;points=[[0,0.5],[1,0.5]];portConstraint=eastwest;strokeColor=inherit;fontSize=16;" parent="36o1cIbMNOUsUsFObOHg-288" vertex="1">
          <mxGeometry y="90" width="180" height="30" as="geometry" />
        </mxCell>
        <mxCell id="36o1cIbMNOUsUsFObOHg-296" value="" style="shape=partialRectangle;html=1;whiteSpace=wrap;connectable=0;fillColor=none;top=0;left=0;bottom=0;right=0;overflow=hidden;strokeColor=inherit;fontSize=16;" parent="36o1cIbMNOUsUsFObOHg-295" vertex="1">
          <mxGeometry width="40" height="30" as="geometry">
            <mxRectangle width="40" height="30" as="alternateBounds" />
          </mxGeometry>
        </mxCell>
        <mxCell id="36o1cIbMNOUsUsFObOHg-297" value="&lt;font style=&quot;font-size: 12px;&quot;&gt;&lt;b&gt;nomeFantasia&lt;/b&gt;&lt;/font&gt;" style="shape=partialRectangle;html=1;whiteSpace=wrap;connectable=0;fillColor=none;top=0;left=0;bottom=0;right=0;align=left;spacingLeft=6;overflow=hidden;strokeColor=inherit;fontSize=16;" parent="36o1cIbMNOUsUsFObOHg-295" vertex="1">
          <mxGeometry x="40" width="140" height="30" as="geometry">
            <mxRectangle width="140" height="30" as="alternateBounds" />
          </mxGeometry>
        </mxCell>
        <mxCell id="bNbkwj3sOuki_tm1tafJ-1" style="edgeStyle=orthogonalEdgeStyle;rounded=0;orthogonalLoop=1;jettySize=auto;html=1;exitX=1;exitY=0.5;exitDx=0;exitDy=0;entryX=0;entryY=0.5;entryDx=0;entryDy=0;endArrow=ERmandOne;endFill=0;startArrow=ERmany;startFill=0;strokeWidth=3;" parent="1" source="36o1cIbMNOUsUsFObOHg-304" target="36o1cIbMNOUsUsFObOHg-289" edge="1">
          <mxGeometry relative="1" as="geometry">
            <Array as="points">
              <mxPoint x="830" y="120" />
              <mxPoint x="830" y="70" />
              <mxPoint x="1300" y="70" />
              <mxPoint x="1300" y="455" />
            </Array>
          </mxGeometry>
        </mxCell>
        <mxCell id="bNbkwj3sOuki_tm1tafJ-2" style="edgeStyle=orthogonalEdgeStyle;rounded=0;orthogonalLoop=1;jettySize=auto;html=1;exitX=1;exitY=0.5;exitDx=0;exitDy=0;endArrow=none;endFill=0;startArrow=ERmany;startFill=0;strokeWidth=3;" parent="1" source="36o1cIbMNOUsUsFObOHg-307" target="36o1cIbMNOUsUsFObOHg-289" edge="1">
          <mxGeometry relative="1" as="geometry">
            <Array as="points">
              <mxPoint x="1300" y="855" />
              <mxPoint x="1300" y="455" />
            </Array>
          </mxGeometry>
        </mxCell>
        <mxCell id="bNbkwj3sOuki_tm1tafJ-3" style="edgeStyle=orthogonalEdgeStyle;rounded=0;orthogonalLoop=1;jettySize=auto;html=1;exitX=1;exitY=0.5;exitDx=0;exitDy=0;entryX=0;entryY=0.5;entryDx=0;entryDy=0;strokeWidth=3;endArrow=none;endFill=0;startArrow=ERmany;startFill=0;" parent="1" source="36o1cIbMNOUsUsFObOHg-301" target="36o1cIbMNOUsUsFObOHg-289" edge="1">
          <mxGeometry relative="1" as="geometry" />
        </mxCell>
        <mxCell id="Qpe2BQ7Be4wpJGZ6nQwp-7" value="N" style="edgeLabel;html=1;align=center;verticalAlign=middle;resizable=0;points=[];fontSize=16;" parent="bNbkwj3sOuki_tm1tafJ-3" vertex="1" connectable="0">
          <mxGeometry x="-0.7013" y="-1" relative="1" as="geometry">
            <mxPoint x="-2" y="-17" as="offset" />
          </mxGeometry>
        </mxCell>
        <mxCell id="Qpe2BQ7Be4wpJGZ6nQwp-4" value="1" style="edgeLabel;html=1;align=center;verticalAlign=middle;resizable=0;points=[];fontSize=18;" parent="1" vertex="1" connectable="0">
          <mxGeometry x="1320.0026698271001" y="439.9961516195822" as="geometry" />
        </mxCell>
        <mxCell id="Qpe2BQ7Be4wpJGZ6nQwp-5" value="1" style="edgeLabel;html=1;align=center;verticalAlign=middle;resizable=0;points=[];fontSize=18;" parent="1" vertex="1" connectable="0">
          <mxGeometry x="349.9426698271002" y="365.00615161958217" as="geometry">
            <mxPoint x="47" y="313" as="offset" />
          </mxGeometry>
        </mxCell>
        <mxCell id="Qpe2BQ7Be4wpJGZ6nQwp-8" value="N" style="edgeLabel;html=1;align=center;verticalAlign=middle;resizable=0;points=[];fontSize=16;" parent="1" vertex="1" connectable="0">
          <mxGeometry x="690.0029411764707" y="40" as="geometry">
            <mxPoint x="-47" y="67" as="offset" />
          </mxGeometry>
        </mxCell>
        <mxCell id="Qpe2BQ7Be4wpJGZ6nQwp-9" value="N" style="edgeLabel;html=1;align=center;verticalAlign=middle;resizable=0;points=[];fontSize=16;" parent="1" vertex="1" connectable="0">
          <mxGeometry x="1170.3529411764707" y="409" as="geometry">
            <mxPoint x="-767" y="-329" as="offset" />
          </mxGeometry>
        </mxCell>
        <mxCell id="Qpe2BQ7Be4wpJGZ6nQwp-10" value="N" style="edgeLabel;html=1;align=center;verticalAlign=middle;resizable=0;points=[];fontSize=16;" parent="1" vertex="1" connectable="0">
          <mxGeometry x="1180.3529411764707" y="419" as="geometry">
            <mxPoint x="-293" y="385" as="offset" />
          </mxGeometry>
        </mxCell>
        <mxCell id="Qpe2BQ7Be4wpJGZ6nQwp-11" value="N" style="edgeLabel;html=1;align=center;verticalAlign=middle;resizable=0;points=[];fontSize=16;" parent="1" vertex="1" connectable="0">
          <mxGeometry x="1200.0029411764708" y="429" as="geometry">
            <mxPoint x="-313" y="147" as="offset" />
          </mxGeometry>
        </mxCell>
        <mxCell id="Qpe2BQ7Be4wpJGZ6nQwp-12" value="N" style="edgeLabel;html=1;align=center;verticalAlign=middle;resizable=0;points=[];fontSize=16;" parent="1" vertex="1" connectable="0">
          <mxGeometry x="1200.3529411764707" y="439" as="geometry">
            <mxPoint x="-313" y="-93" as="offset" />
          </mxGeometry>
        </mxCell>
        <mxCell id="Qpe2BQ7Be4wpJGZ6nQwp-13" value="N" style="edgeLabel;html=1;align=center;verticalAlign=middle;resizable=0;points=[];fontSize=16;" parent="1" vertex="1" connectable="0">
          <mxGeometry x="1210.3529411764707" y="449" as="geometry">
            <mxPoint x="-324" y="-304" as="offset" />
          </mxGeometry>
        </mxCell>
        <mxCell id="Qpe2BQ7Be4wpJGZ6nQwp-14" value="N" style="edgeLabel;html=1;align=center;verticalAlign=middle;resizable=0;points=[];fontSize=16;" parent="1" vertex="1" connectable="0">
          <mxGeometry x="1220.3529411764707" y="459" as="geometry">
            <mxPoint x="-72" y="380" as="offset" />
          </mxGeometry>
        </mxCell>
        <mxCell id="Qpe2BQ7Be4wpJGZ6nQwp-15" value="&lt;font style=&quot;font-size: 19px;&quot;&gt;&lt;b&gt;Modelo Conceitual&lt;/b&gt;&lt;/font&gt;" style="rounded=1;whiteSpace=wrap;html=1;fontColor=#FFFFFF;fillColor=#007DFC;glass=0;shadow=0;" parent="1" vertex="1">
          <mxGeometry x="560" y="-1140" width="544" height="40" as="geometry" />
        </mxCell>
        <mxCell id="Qpe2BQ7Be4wpJGZ6nQwp-17" value="Modelo Logico" style="rounded=1;whiteSpace=wrap;html=1;strokeColor=#000000;fillColor=#007DFC;fontColor=#FFFFFF;fontStyle=1;fontSize=20;" parent="1" vertex="1">
          <mxGeometry x="569" y="-230" width="541" height="40" as="geometry" />
        </mxCell>
      </root>
    </mxGraphModel>
  </diagram>
</mxfile>
